<?xml version="1.0" standalone="no"?>
<!DOCTYPE svg PUBLIC "-//W3C//DTD SVG 20010904//EN"
 "http://www.w3.org/TR/2001/REC-SVG-20010904/DTD/svg10.dtd">
<svg version="1.0" xmlns="http://www.w3.org/2000/svg"
 width="730.000000pt" height="730.000000pt" viewBox="0 0 730.000000 730.000000"
 preserveAspectRatio="xMidYMid meet">
<metadata>
Created by potrace 1.11, written by Peter Selinger 2001-2013
</metadata>
<g transform="translate(0.000000,730.000000) scale(0.100000,-0.100000)"
fill="#000000" stroke="none">
<path d="M9 7251 c-1 -3 -2 -1629 -3 -3613 l-1 -3608 3198 0 c2556 0 3197 3
3191 13 -4 6 -27 32 -50 57 -23 25 -56 61 -74 80 -17 19 -53 58 -79 85 -26 28
-99 106 -161 175 -139 152 -115 126 -236 256 -132 142 -143 155 -228 248 -39
43 -84 93 -101 110 -16 17 -55 58 -85 91 -30 33 -103 112 -161 175 -58 63
-166 180 -239 260 -73 80 -181 196 -239 259 -58 62 -108 117 -111 121 -5 7
-104 115 -281 304 -36 39 -88 95 -115 125 -27 30 -58 64 -69 75 -30 32 -201
218 -222 242 -10 12 -64 70 -120 130 -56 60 -110 119 -120 131 -11 12 -66 72
-123 133 -57 61 -112 121 -123 133 -10 12 -63 69 -116 127 -94 100 -163 176
-223 243 -16 17 -28 33 -28 36 0 8 50 61 265 286 94 99 184 194 199 210 16 17
92 98 170 180 79 83 162 170 185 195 86 91 307 324 351 370 56 58 299 315 372
392 29 31 112 118 184 195 73 76 151 158 174 183 23 25 104 110 180 190 76 80
158 165 181 190 23 25 79 83 124 130 l82 85 89 -1 c278 -5 618 -15 621 -18 4
-4 10 -867 17 -2307 l4 -797 -45 47 c-25 25 -163 167 -306 315 -144 147 -293
300 -331 340 -38 39 -194 199 -346 356 -153 157 -331 340 -396 408 l-119 123
-54 -58 c-29 -32 -108 -115 -175 -184 -263 -273 -471 -491 -473 -497 -3 -7 32
-45 347 -372 98 -102 204 -212 235 -245 32 -33 114 -119 184 -191 189 -196
490 -509 545 -568 27 -28 139 -144 249 -259 110 -114 221 -230 247 -257 26
-27 130 -136 231 -241 101 -105 210 -219 243 -253 32 -33 143 -149 246 -256
104 -107 210 -218 237 -246 26 -28 136 -143 243 -254 107 -111 197 -205 200
-209 3 -3 15 -14 27 -25 l22 -19 0 3340 0 3339 -1112 -1 -1112 -1 -57 -59
c-31 -33 -73 -78 -93 -100 -21 -22 -63 -67 -94 -100 -31 -33 -95 -101 -141
-150 -73 -77 -200 -213 -372 -396 -24 -25 -92 -99 -153 -164 -60 -64 -121
-129 -135 -144 -24 -26 -233 -248 -395 -421 -132 -140 -182 -193 -211 -225
-15 -16 -93 -100 -173 -185 -80 -85 -168 -178 -196 -208 -27 -29 -68 -72 -90
-96 -39 -41 -245 -261 -315 -336 -158 -170 -261 -279 -295 -315 -22 -23 -92
-97 -155 -165 -148 -158 -365 -390 -445 -475 -59 -63 -58 -59 -28 -92 15 -17
66 -72 113 -123 47 -51 96 -105 110 -120 14 -15 47 -52 74 -81 27 -30 92 -101
146 -159 53 -58 116 -127 141 -154 24 -28 51 -57 59 -66 54 -58 212 -231 238
-261 17 -20 49 -54 69 -76 35 -36 189 -204 223 -243 8 -9 56 -61 105 -115 124
-134 129 -140 220 -240 44 -49 95 -105 114 -124 18 -20 63 -69 100 -110 36
-41 73 -81 82 -90 8 -9 42 -45 75 -81 32 -36 102 -112 154 -169 52 -57 102
-112 110 -121 28 -33 185 -203 208 -226 12 -13 22 -26 22 -29 0 -2 -138 -3
-307 0 -659 10 -1109 17 -1363 20 -238 3 -1010 14 -1297 18 -61 1 -115 5 -119
10 -4 4 -6 316 -5 695 3 886 9 2898 11 3759 2 503 5 673 14 676 6 3 63 5 126
6 63 1 239 4 390 7 l275 6 107 -109 c58 -59 132 -136 165 -169 32 -34 155
-161 273 -284 118 -122 224 -232 235 -244 53 -56 35 -67 278 181 259 263 412
421 444 455 l23 24 -28 30 c-31 33 -119 128 -267 288 -55 60 -115 125 -134
145 -30 33 -135 146 -266 289 -27 30 -67 73 -89 96 -21 22 -75 81 -120 130
-44 49 -103 112 -131 141 l-50 52 -1122 0 c-618 0 -1124 -3 -1124 -6z"/>
</g>
</svg>
