<svg xmlns="http://www.w3.org/2000/svg" xmlns:xlink="http://www.w3.org/1999/xlink" id="svg" width="400" height="396.164" version="1.1" viewBox="0 0 400 396.164"><g id="svgg"><path id="path0" fill="#145cdb" fill-rule="evenodd" stroke="none" d="M1.195 0.694 C 1.200 1.007,3.010 2.893,21.572 21.941 C 27.913 28.449,35.183 35.941,37.727 38.591 C 40.270 41.241,45.381 46.519,49.084 50.321 L 55.816 57.232 64.832 57.409 C 71.480 57.540,73.775 57.469,73.570 57.138 C 73.368 56.810,75.401 56.691,81.146 56.696 C 86.363 56.700,88.799 56.831,88.404 57.086 C 88.047 57.317,87.998 57.473,88.282 57.477 C 88.542 57.480,88.864 57.304,88.999 57.086 C 89.143 56.853,91.485 56.690,94.684 56.690 L 100.124 56.690 102.402 58.992 C 103.654 60.258,104.585 61.417,104.471 61.568 C 104.356 61.720,104.382 61.753,104.530 61.642 C 104.864 61.390,106.634 63.017,106.657 63.597 C 106.666 63.832,107.201 64.461,107.846 64.996 C 108.974 65.931,109.505 66.948,108.561 66.365 C 108.284 66.193,108.211 66.255,108.376 66.522 C 108.525 66.764,108.881 66.873,109.166 66.763 C 109.451 66.654,109.917 66.844,110.201 67.186 C 110.643 67.719,110.614 67.769,110.001 67.533 C 109.508 67.344,109.375 67.403,109.572 67.723 C 109.729 67.978,110.195 68.186,110.605 68.186 C 111.388 68.186,112.690 69.680,112.366 70.206 C 112.262 70.373,112.386 70.639,112.642 70.797 C 112.931 70.976,112.999 70.912,112.823 70.626 C 112.163 69.559,113.182 70.335,115.601 72.742 C 117.024 74.158,118.078 75.494,117.943 75.711 C 117.797 75.948,117.973 76.001,118.383 75.843 C 118.913 75.640,119.008 75.735,118.805 76.265 C 118.660 76.641,118.704 76.849,118.902 76.727 C 119.337 76.458,122.101 78.987,122.101 79.654 C 122.101 79.916,121.881 80.002,121.606 79.847 C 121.333 79.694,121.898 80.389,122.861 81.392 C 123.823 82.396,124.748 83.132,124.915 83.028 C 125.428 82.712,127.592 85.315,127.378 85.991 C 127.240 86.430,127.286 86.475,127.529 86.140 C 127.780 85.794,128.470 86.227,129.984 87.678 C 131.617 89.245,131.969 89.783,131.555 90.079 C 131.150 90.369,131.187 90.408,131.708 90.241 C 132.453 90.002,134.788 92.160,134.616 92.929 C 134.564 93.166,134.600 93.213,134.696 93.033 C 134.894 92.668,136.769 94.296,136.769 94.833 C 136.769 95.022,138.508 96.871,140.634 98.943 C 142.967 101.216,144.448 102.962,144.370 103.346 C 144.297 103.701,144.762 103.410,145.422 102.687 C 146.072 101.975,146.787 101.506,147.011 101.644 C 147.235 101.783,147.547 101.687,147.705 101.432 C 147.884 101.142,147.820 101.074,147.534 101.251 C 146.439 101.927,147.234 100.775,149.068 99.025 C 151.048 97.137,151.748 96.675,151.194 97.621 C 151.035 97.894,151.292 97.777,151.765 97.362 C 152.657 96.580,152.924 96.102,152.230 96.531 C 152.012 96.666,151.833 96.656,151.833 96.508 C 151.833 95.959,157.972 90.188,158.557 90.188 C 158.892 90.187,159.167 89.920,159.167 89.593 C 159.168 88.920,160.545 87.215,161.088 87.215 C 161.284 87.215,161.200 87.527,160.901 87.909 C 160.409 88.537,160.422 88.551,161.046 88.062 C 161.425 87.765,161.642 87.370,161.527 87.185 C 161.413 86.999,161.682 86.484,162.126 86.040 C 162.570 85.596,162.935 85.099,162.937 84.936 C 162.939 84.772,167.400 80.187,172.851 74.745 C 182.795 64.818,183.204 64.294,182.222 62.729 C 182.049 62.453,181.722 62.342,181.494 62.482 C 180.892 62.854,180.316 61.741,180.893 61.321 C 181.212 61.089,181.152 61.045,180.708 61.186 C 179.893 61.445,175.463 56.876,175.766 56.088 C 175.877 55.797,175.667 55.322,175.299 55.034 C 174.696 54.563,174.683 54.580,175.172 55.203 C 175.472 55.585,175.561 55.893,175.371 55.889 C 174.705 55.873,170.395 51.179,170.657 50.755 C 170.802 50.520,170.774 50.353,170.594 50.384 C 169.752 50.530,169.277 50.294,169.277 49.729 C 169.277 49.344,169.464 49.220,169.772 49.401 C 170.045 49.560,169.932 49.307,169.521 48.839 C 169.110 48.370,168.634 48.074,168.462 48.180 C 168.290 48.286,167.288 47.462,166.236 46.349 C 165.183 45.236,164.031 44.030,163.677 43.669 C 163.322 43.308,162.908 42.609,162.756 42.115 C 162.604 41.621,162.341 41.303,162.171 41.408 C 161.784 41.648,156.194 35.941,156.194 35.306 C 156.194 35.049,156.400 34.967,156.652 35.122 C 156.938 35.299,157.002 35.231,156.823 34.941 C 156.665 34.686,156.376 34.575,156.181 34.696 C 155.686 35.002,151.691 31.077,151.995 30.584 C 152.131 30.364,152.034 30.055,151.779 29.897 C 151.489 29.718,151.421 29.782,151.597 30.068 C 151.753 30.319,151.695 30.525,151.470 30.525 C 150.909 30.525,149.729 28.665,150.006 28.217 C 150.129 28.019,149.832 27.520,149.346 27.109 L 148.464 26.363 149.224 27.354 C 150.059 28.443,144.781 23.128,139.643 17.706 C 136.682 14.581,135.555 12.962,136.868 13.717 C 137.156 13.883,137.225 13.851,137.033 13.641 C 136.852 13.443,136.495 13.272,136.241 13.262 C 135.986 13.253,135.820 13.036,135.872 12.781 C 135.926 12.519,135.710 12.416,135.377 12.544 C 134.850 12.746,134.599 12.293,134.740 11.397 C 134.766 11.234,134.653 11.121,134.490 11.147 C 133.478 11.307,133.165 11.038,133.399 10.208 C 133.578 9.572,133.541 9.474,133.270 9.866 C 132.960 10.313,132.753 10.249,132.153 9.520 C 131.748 9.027,131.127 8.334,130.773 7.979 C 130.418 7.624,130.004 6.930,129.852 6.436 C 129.700 5.943,129.447 5.618,129.289 5.716 C 129.132 5.813,127.784 4.656,126.293 3.145 L 123.584 0.396 62.387 0.396 C 28.728 0.396,1.192 0.530,1.195 0.694 M375.818 0.812 L 358.969 1.091 331.920 28.197 L 304.870 55.302 312.891 55.504 C 318.907 55.655,320.169 55.764,317.939 55.940 C 316.303 56.070,320.808 56.091,327.948 55.989 C 338.028 55.844,340.932 55.911,340.932 56.288 C 340.932 56.617,341.455 56.723,342.558 56.618 L 344.185 56.463 343.890 109.360 C 343.668 149.219,343.708 162.187,344.052 161.974 C 344.395 161.762,344.505 169.811,344.495 194.324 L 344.482 226.956 339.733 222.140 C 335.620 217.967,333.648 215.642,335.589 217.252 C 336.094 217.672,336.151 217.646,335.940 217.096 C 335.801 216.734,335.462 216.486,335.187 216.544 C 334.430 216.704,319.399 201.515,319.751 200.945 C 319.930 200.656,319.875 200.576,319.609 200.740 C 319.108 201.050,317.467 199.451,317.775 198.953 C 317.887 198.771,317.692 198.732,317.341 198.867 C 316.904 199.034,316.632 198.845,316.481 198.268 C 316.360 197.803,316.103 197.423,315.910 197.423 C 315.718 197.423,315.560 197.234,315.560 197.003 C 315.560 196.772,315.766 196.711,316.018 196.866 C 316.303 197.043,316.368 196.975,316.188 196.685 C 316.031 196.430,315.756 196.311,315.577 196.421 C 315.399 196.531,315.010 196.322,314.713 195.955 C 314.248 195.382,314.256 195.337,314.767 195.631 C 315.139 195.845,315.079 195.651,314.607 195.113 C 313.827 194.224,313.347 193.954,313.773 194.644 C 313.914 194.871,313.749 194.933,313.383 194.793 C 313.035 194.659,312.824 194.477,312.914 194.387 C 313.003 194.298,311.856 193.047,310.364 191.607 C 308.873 190.167,307.764 188.807,307.901 188.586 C 308.038 188.364,307.965 188.298,307.737 188.438 C 307.510 188.578,307.119 188.445,306.867 188.141 C 306.517 187.720,306.530 187.540,306.921 187.378 C 307.203 187.261,306.987 187.199,306.442 187.240 C 305.606 187.303,305.467 187.159,305.551 186.323 C 305.620 185.645,305.543 185.499,305.309 185.861 C 305.049 186.263,304.595 185.996,303.425 184.752 C 302.577 183.851,300.785 182.023,299.442 180.690 C 297.822 179.081,297.077 178.055,297.226 177.637 C 297.349 177.290,297.315 177.129,297.150 177.278 C 296.811 177.582,294.549 175.418,294.549 174.789 C 294.549 174.566,294.410 174.469,294.240 174.574 C 293.792 174.851,275.124 155.894,275.124 155.161 C 275.124 155.050,275.347 155.087,275.619 155.244 C 275.892 155.401,275.682 155.054,275.154 154.474 C 274.141 153.363,273.487 152.996,274.331 154.014 C 274.655 154.404,274.676 154.609,274.394 154.609 C 273.823 154.609,273.092 153.213,273.453 152.813 C 273.609 152.641,273.539 152.611,273.299 152.749 C 272.751 153.061,268.187 148.724,268.186 147.889 C 268.185 147.552,267.906 147.275,267.564 147.275 C 266.950 147.275,263.627 144.295,263.627 143.745 C 263.627 143.589,263.804 143.571,264.019 143.704 C 264.248 143.845,264.308 143.677,264.162 143.298 C 264.007 142.894,263.815 142.808,263.653 143.070 C 263.485 143.342,263.173 143.248,262.774 142.806 C 262.433 142.429,261.748 141.790,261.251 141.385 C 260.625 140.875,260.491 140.560,260.814 140.361 C 261.070 140.202,260.731 140.073,260.059 140.073 C 259.388 140.073,259.035 140.194,259.275 140.342 C 259.932 140.748,256.289 144.351,255.520 144.056 C 255.182 143.926,254.906 144.028,254.906 144.282 C 254.906 144.544,255.121 144.617,255.401 144.451 C 255.674 144.290,255.183 144.976,254.311 145.976 C 252.814 147.693,251.746 148.460,252.367 147.374 C 252.523 147.101,252.087 147.402,251.399 148.042 C 249.863 149.472,249.731 149.961,251.239 148.633 C 252.320 147.682,252.320 147.684,251.183 148.942 C 250.552 149.640,249.861 150.174,249.646 150.130 C 249.432 150.086,249.176 150.317,249.078 150.644 C 248.919 151.173,248.946 151.173,249.320 150.644 C 249.566 150.296,249.743 150.241,249.746 150.511 C 249.755 151.204,247.015 153.886,246.575 153.614 C 246.365 153.484,246.280 153.610,246.386 153.894 C 246.496 154.186,244.429 156.531,241.625 159.296 C 238.900 161.983,236.670 164.285,236.670 164.410 C 236.670 164.817,233.989 167.254,233.740 167.073 C 233.607 166.977,233.592 167.021,233.707 167.172 C 234.087 167.673,229.868 171.603,229.184 171.387 C 228.727 171.242,228.685 171.286,229.036 171.540 C 229.399 171.803,229.124 172.291,227.991 173.398 C 227.145 174.224,226.373 174.749,226.275 174.566 C 226.177 174.382,226.147 174.446,226.210 174.709 C 226.272 174.971,225.819 175.610,225.201 176.130 C 224.584 176.649,223.966 177.432,223.827 177.869 C 223.688 178.306,223.141 178.896,222.611 179.180 C 221.376 179.841,220.999 180.828,221.767 181.390 C 222.097 181.631,222.548 182.305,222.769 182.887 C 222.991 183.468,223.399 183.942,223.677 183.938 C 224.032 183.934,224.009 183.823,223.599 183.564 C 223.278 183.361,223.109 183.102,223.223 182.988 C 223.404 182.807,231.329 190.735,236.174 195.944 C 237.895 197.793,238.413 198.747,237.166 197.769 C 236.535 197.274,236.522 197.289,237.024 197.928 C 237.327 198.315,237.663 198.544,237.770 198.438 C 238.070 198.138,239.445 198.983,239.445 199.468 C 239.445 199.738,239.186 199.698,238.751 199.362 C 238.174 198.915,238.183 198.971,238.804 199.700 C 239.215 200.182,239.714 200.475,239.912 200.353 C 240.519 199.978,243.850 203.585,243.571 204.314 C 243.431 204.679,243.524 204.955,243.787 204.955 C 244.050 204.955,244.122 204.742,243.953 204.460 C 243.790 204.187,244.150 204.410,244.753 204.955 C 246.774 206.782,247.374 207.480,247.374 208.003 C 247.374 208.289,247.563 208.523,247.793 208.523 C 248.024 208.523,248.086 208.729,247.930 208.981 C 247.773 209.236,247.820 209.332,248.038 209.198 C 248.252 209.065,249.368 209.908,250.517 211.072 C 251.667 212.236,252.455 213.269,252.270 213.367 C 252.084 213.466,252.144 213.497,252.402 213.436 C 252.920 213.314,262.438 222.978,262.438 223.626 C 262.438 223.849,262.232 223.904,261.980 223.748 C 261.703 223.577,261.630 223.639,261.795 223.906 C 261.945 224.148,262.310 224.253,262.608 224.138 C 263.236 223.897,264.504 225.510,264.144 226.092 C 264.007 226.314,264.103 226.361,264.364 226.199 C 264.997 225.808,271.720 232.516,271.329 233.149 C 271.141 233.453,271.206 233.516,271.514 233.326 C 272.142 232.938,274.013 234.815,273.731 235.551 C 273.611 235.863,273.989 236.546,274.581 237.085 C 275.168 237.620,275.500 237.790,275.318 237.463 C 275.104 237.077,275.287 237.131,275.839 237.615 C 276.308 238.026,276.603 238.504,276.496 238.678 C 276.388 238.852,276.509 239.123,276.764 239.281 C 277.077 239.474,277.126 239.386,276.913 239.011 C 276.740 238.704,277.589 239.414,278.801 240.588 C 280.231 241.974,280.934 242.948,280.802 243.363 C 280.653 243.833,280.696 243.869,280.963 243.499 C 281.247 243.105,281.479 243.162,282.016 243.755 C 282.554 244.350,282.591 244.568,282.185 244.752 C 281.899 244.882,282.043 244.896,282.505 244.783 C 283.116 244.634,283.541 244.878,284.065 245.679 C 284.461 246.284,285.287 247.220,285.901 247.759 C 286.515 248.298,287.017 248.877,287.017 249.044 C 287.017 249.212,290.076 252.365,293.815 256.050 C 298.820 260.984,300.546 262.924,300.360 263.408 C 300.222 263.769,300.264 263.968,300.455 263.851 C 300.838 263.614,301.794 264.575,301.485 264.885 C 301.378 264.991,301.766 265.510,302.345 266.037 C 302.924 266.565,303.270 266.774,303.113 266.501 C 302.623 265.651,303.334 265.959,304.322 267.024 C 304.841 267.585,305.146 268.237,305.000 268.473 C 304.853 268.710,304.911 268.794,305.127 268.661 C 305.603 268.366,307.235 269.445,307.235 270.054 C 307.235 270.294,306.833 270.150,306.343 269.734 L 305.451 268.979 306.198 269.862 C 306.608 270.347,307.101 270.648,307.293 270.529 C 307.724 270.263,310.917 273.429,310.651 273.859 C 310.545 274.031,310.642 274.430,310.866 274.746 C 311.190 275.203,311.223 275.167,311.029 274.572 C 310.811 273.904,310.861 273.883,311.487 274.374 C 312.587 275.237,313.102 276.024,313.339 277.205 C 313.475 277.884,313.814 278.295,314.236 278.295 C 315.224 278.295,316.729 279.849,316.485 280.617 C 316.339 281.078,316.382 281.125,316.634 280.776 C 317.129 280.091,327.648 290.693,327.321 291.546 C 327.195 291.876,327.289 292.268,327.531 292.417 C 327.798 292.582,327.860 292.509,327.689 292.232 C 327.222 291.476,327.872 291.714,328.877 292.666 C 329.851 293.589,330.179 294.414,329.374 293.917 C 329.088 293.740,329.024 293.808,329.203 294.098 C 329.361 294.353,329.649 294.463,329.844 294.343 C 330.320 294.049,331.905 295.666,331.609 296.145 C 331.475 296.361,331.667 296.410,332.060 296.260 C 332.590 296.056,332.685 296.151,332.482 296.681 C 332.323 297.095,332.377 297.268,332.619 297.118 C 333.214 296.750,337.121 300.719,336.752 301.316 C 336.572 301.607,336.611 301.707,336.848 301.560 C 337.363 301.242,339.055 303.023,338.656 303.463 C 338.490 303.645,338.598 303.653,338.895 303.482 C 339.428 303.173,340.127 303.840,340.127 304.658 C 340.127 304.876,339.954 304.787,339.742 304.460 C 339.531 304.133,339.355 304.066,339.352 304.312 C 339.349 304.558,339.613 304.981,339.941 305.253 C 340.268 305.524,340.535 305.608,340.535 305.438 C 340.535 305.269,340.888 305.449,341.319 305.839 C 341.750 306.229,342.019 306.682,341.918 306.847 C 341.816 307.011,342.033 307.388,342.400 307.686 C 342.973 308.150,343.019 308.143,342.733 307.631 C 342.551 307.304,343.139 307.741,344.042 308.601 C 345.248 309.750,345.552 310.259,345.190 310.521 C 344.837 310.777,344.875 310.822,345.327 310.679 C 346.217 310.398,348.494 312.611,348.213 313.485 C 348.055 313.977,348.096 314.028,348.358 313.666 C 348.841 312.995,354.804 319.292,354.813 320.482 C 354.818 321.161,354.887 321.202,355.203 320.714 C 355.532 320.205,355.588 320.220,355.594 320.813 C 355.597 321.194,355.825 321.506,356.101 321.506 C 356.980 321.506,366.836 331.679,366.587 332.329 C 366.454 332.676,366.797 333.303,367.422 333.853 L 368.484 334.787 367.493 333.614 L 366.501 332.440 367.959 333.614 C 369.354 334.736,370.018 335.735,368.979 335.149 C 368.614 334.942,368.619 335.014,368.999 335.423 C 369.282 335.727,369.650 335.976,369.815 335.976 C 370.539 335.976,372.680 338.180,372.410 338.648 C 372.252 338.923,372.264 339.020,372.437 338.864 C 373.065 338.297,374.284 339.351,374.007 340.223 C 373.795 340.892,373.875 341.001,374.425 340.790 C 375.383 340.423,379.818 345.158,379.569 346.283 C 379.472 346.720,379.496 346.852,379.621 346.578 C 379.941 345.882,380.575 346.369,380.575 347.310 C 380.575 347.740,380.798 348.159,381.070 348.240 C 383.066 348.835,383.144 348.892,382.546 349.315 C 382.049 349.666,382.057 349.698,382.601 349.526 C 383.538 349.229,392.978 358.807,392.633 359.705 C 392.454 360.172,392.545 360.302,392.944 360.149 C 393.611 359.893,395.033 361.319,394.681 361.890 C 394.547 362.107,394.646 362.413,394.901 362.571 C 395.191 362.750,395.259 362.686,395.082 362.400 C 394.578 361.584,395.416 361.930,396.364 362.929 C 396.871 363.464,397.170 364.090,397.028 364.319 C 396.886 364.549,396.917 364.712,397.096 364.680 C 397.851 364.549,398.414 364.745,398.414 365.137 C 398.414 365.368,398.208 365.430,397.957 365.274 C 397.664 365.094,397.607 365.166,397.798 365.476 C 397.963 365.742,398.192 365.865,398.308 365.749 C 398.424 365.633,398.807 365.693,399.160 365.882 C 399.751 366.198,399.794 351.750,399.702 183.311 L 399.602 0.396 396.134 0.464 C 394.227 0.502,385.084 0.658,375.818 0.812 M123.687 81.467 C 124.426 82.230,124.942 82.854,124.833 82.854 C 124.724 82.854,124.030 82.230,123.290 81.467 C 122.551 80.704,122.035 80.079,122.144 80.079 C 122.253 80.079,122.947 80.704,123.687 81.467"/><path id="path1" fill="#0c8cd4" fill-rule="evenodd" stroke="none" d="M276.923 1.905 C 273.012 6.161,269.970 8.967,269.445 8.804 C 269.266 8.748,269.234 8.888,269.374 9.116 C 269.719 9.674,265.017 15.116,263.567 15.836 C 262.849 16.193,262.494 16.621,262.628 16.970 C 262.772 17.345,262.648 17.456,262.257 17.306 C 261.934 17.182,261.575 17.237,261.457 17.426 C 261.340 17.616,261.445 17.839,261.690 17.921 C 261.936 18.002,261.491 18.562,260.702 19.164 C 259.912 19.766,259.267 20.443,259.267 20.669 C 259.267 21.319,254.939 25.439,254.525 25.183 C 254.149 24.951,253.080 26.505,253.236 27.056 C 253.282 27.220,253.112 27.354,252.858 27.354 C 252.603 27.354,252.491 27.449,252.608 27.566 C 252.724 27.683,251.954 28.709,250.897 29.846 C 249.839 30.983,248.970 32.047,248.966 32.210 C 248.962 32.374,248.711 32.507,248.407 32.507 C 248.103 32.507,247.752 32.775,247.627 33.102 C 247.501 33.429,247.057 33.697,246.639 33.697 C 246.202 33.697,245.788 34.049,245.663 34.529 C 245.543 34.987,245.256 35.246,245.026 35.104 C 244.772 34.947,244.700 35.085,244.843 35.457 C 244.981 35.817,244.816 36.169,244.442 36.313 C 244.092 36.447,243.806 36.765,243.806 37.021 C 243.806 37.276,243.494 37.758,243.112 38.092 C 242.730 38.426,241.635 39.581,240.678 40.658 C 239.721 41.735,238.706 42.566,238.422 42.505 C 238.139 42.444,237.433 43.203,236.854 44.190 C 235.902 45.814,235.472 46.167,234.603 46.038 C 234.447 46.015,234.421 46.259,234.544 46.580 C 234.780 47.194,230.794 51.627,230.288 51.314 C 230.137 51.221,229.907 51.422,229.777 51.762 C 229.646 52.101,229.360 52.268,229.141 52.133 C 228.921 51.997,228.741 52.253,228.741 52.702 C 228.741 53.200,228.483 53.518,228.081 53.518 C 227.717 53.518,227.537 53.635,227.680 53.778 C 228.186 54.284,222.772 60.258,221.807 60.258 C 221.504 60.258,221.129 60.464,220.973 60.715 C 220.787 61.016,220.881 61.074,221.247 60.884 C 221.553 60.725,221.457 60.876,221.034 61.219 C 220.611 61.563,220.106 61.843,219.911 61.843 C 219.716 61.843,219.632 62.066,219.724 62.339 C 219.991 63.135,213.083 70.330,212.330 70.041 C 212.063 69.938,211.828 70.251,211.786 70.762 C 211.696 71.841,206.344 77.505,205.055 77.887 C 204.564 78.032,204.163 78.406,204.163 78.718 C 204.163 79.031,203.876 79.286,203.525 79.286 C 203.109 79.286,202.971 79.502,203.128 79.911 C 203.381 80.570,202.545 81.665,201.789 81.665 C 201.542 81.665,201.435 81.818,201.551 82.006 C 201.667 82.193,201.232 82.819,200.584 83.396 C 199.936 83.974,199.405 84.623,199.405 84.840 C 199.405 85.056,199.108 85.233,198.745 85.233 C 198.381 85.233,198.200 85.349,198.342 85.491 C 198.689 85.838,197.394 86.790,196.554 86.806 C 196.106 86.814,195.932 87.074,196.031 87.589 C 196.135 88.127,196.009 88.293,195.612 88.141 C 195.253 88.003,195.045 88.178,195.045 88.618 C 195.045 88.999,194.689 89.688,194.255 90.147 C 190.209 94.425,189.006 95.540,188.437 95.540 C 188.074 95.540,187.894 95.658,188.038 95.802 C 188.182 95.946,187.942 96.315,187.503 96.622 C 187.065 96.929,186.799 97.330,186.912 97.513 C 187.025 97.697,186.611 98.273,185.992 98.794 C 185.373 99.315,184.703 100.020,184.504 100.361 C 183.188 102.618,181.024 104.636,180.415 104.174 C 180.067 103.909,179.901 103.836,180.046 104.010 C 180.341 104.364,179.139 105.800,178.729 105.586 C 178.586 105.511,178.555 105.780,178.660 106.182 C 178.786 106.664,178.434 107.266,177.632 107.941 C 176.961 108.506,176.412 109.083,176.412 109.224 C 176.412 109.365,175.520 110.377,174.430 111.473 C 173.340 112.569,172.448 113.317,172.448 113.136 C 172.448 112.955,172.162 113.215,171.812 113.714 C 171.463 114.214,170.948 114.534,170.668 114.427 C 170.335 114.299,170.224 114.480,170.347 114.950 C 170.569 115.799,164.204 122.498,163.175 122.498 C 162.824 122.498,162.558 122.631,162.584 122.795 C 162.610 122.958,162.588 123.226,162.535 123.389 C 162.481 123.553,162.416 123.902,162.389 124.164 C 162.361 124.427,161.893 124.766,161.348 124.918 C 160.803 125.069,160.503 125.211,160.681 125.233 C 160.859 125.255,160.648 125.763,160.210 126.363 C 159.159 127.804,155.524 131.601,155.344 131.444 C 155.267 131.377,154.846 131.682,154.410 132.124 C 153.974 132.565,153.885 132.781,154.212 132.603 C 154.539 132.424,154.182 132.916,153.419 133.696 C 152.656 134.475,151.067 136.192,149.887 137.511 C 148.708 138.830,147.592 139.816,147.407 139.702 C 147.222 139.587,146.964 139.772,146.834 140.111 C 146.703 140.451,146.437 140.630,146.242 140.510 C 145.939 140.322,145.746 140.782,145.811 141.539 C 145.821 141.655,144.861 142.799,143.678 144.080 C 142.494 145.362,141.526 146.560,141.526 146.744 C 141.526 146.927,141.391 147.076,141.225 147.076 C 141.059 147.076,140.454 147.512,139.880 148.044 C 139.306 148.576,138.741 148.916,138.625 148.800 C 138.508 148.684,138.108 149.178,137.736 149.899 C 137.363 150.620,136.636 151.541,136.121 151.947 C 135.605 152.352,135.183 152.899,135.183 153.163 C 135.183 153.426,134.165 154.616,132.921 155.806 C 131.677 156.996,130.809 157.726,130.994 157.427 C 131.223 157.057,131.163 156.940,130.805 157.059 C 130.516 157.155,129.933 157.904,129.507 158.724 C 129.082 159.543,128.223 160.591,127.598 161.053 C 126.973 161.515,126.462 162.097,126.462 162.345 C 126.462 162.861,122.210 166.898,121.666 166.898 C 121.469 166.898,121.308 167.131,121.308 167.415 C 121.308 167.700,120.670 168.636,119.890 169.496 C 115.616 174.211,114.840 175.025,114.616 175.028 C 114.103 175.034,112.559 176.328,112.669 176.660 C 112.733 176.851,112.428 177.392,111.992 177.863 C 111.556 178.333,110.136 179.894,108.837 181.332 C 107.538 182.769,106.165 183.944,105.787 183.944 C 105.329 183.944,105.148 184.192,105.243 184.688 C 105.339 185.188,105.170 185.415,104.725 185.382 C 104.361 185.354,104.105 185.545,104.155 185.805 C 104.205 186.065,103.780 186.645,103.210 187.093 C 102.639 187.542,102.313 187.909,102.486 187.909 C 102.658 187.909,102.480 188.261,102.090 188.692 C 101.700 189.123,101.199 189.363,100.976 189.226 C 100.753 189.088,100.682 189.155,100.817 189.373 C 100.952 189.592,100.738 190.110,100.340 190.525 C 99.249 191.664,97.557 193.056,97.224 193.089 C 96.679 193.144,95.556 194.354,95.754 194.674 C 95.862 194.848,95.777 195.097,95.565 195.227 C 95.354 195.358,94.805 195.992,94.346 196.637 L 93.511 197.809 94.554 198.852 C 95.127 199.425,95.621 200.218,95.651 200.613 C 95.680 201.009,95.820 201.261,95.961 201.174 C 96.102 201.087,96.811 201.545,97.536 202.193 C 98.261 202.840,98.688 203.382,98.486 203.398 C 98.283 203.413,98.442 203.554,98.840 203.710 C 99.238 203.867,99.541 204.134,99.513 204.303 C 99.486 204.472,99.919 204.969,100.475 205.407 C 101.031 205.844,101.487 206.508,101.487 206.881 C 101.487 207.254,102.066 207.897,102.775 208.311 C 104.231 209.159,105.742 210.756,106.077 211.800 C 106.200 212.184,106.494 212.380,106.730 212.234 C 106.966 212.088,107.048 212.148,106.912 212.368 C 106.645 212.800,107.557 214.270,108.095 214.274 C 108.766 214.280,110.087 215.528,111.933 217.899 C 112.977 219.240,114.622 220.998,115.588 221.805 C 116.554 222.613,117.344 223.466,117.344 223.702 C 117.344 223.938,117.732 224.544,118.206 225.049 C 118.787 225.668,118.892 225.966,118.527 225.966 C 118.175 225.966,118.253 226.162,118.750 226.526 C 119.171 226.834,119.661 226.996,119.838 226.886 C 120.016 226.776,120.522 227.104,120.963 227.615 C 121.404 228.125,122.284 229.115,122.918 229.815 C 123.553 230.514,124.119 231.317,124.177 231.599 C 124.234 231.881,124.638 232.328,125.074 232.592 C 125.514 232.859,125.636 233.080,125.348 233.088 C 125.063 233.096,124.941 233.283,125.078 233.505 C 125.215 233.727,125.518 233.790,125.752 233.646 C 126.392 233.250,130.439 237.907,130.186 238.749 C 130.034 239.254,130.145 239.376,130.598 239.202 C 130.940 239.071,131.220 239.117,131.222 239.303 C 131.223 239.490,131.848 240.068,132.609 240.586 C 133.371 241.105,133.996 241.729,133.998 241.974 C 134.000 242.218,134.535 242.840,135.187 243.355 C 135.839 243.870,136.373 244.628,136.373 245.040 C 136.373 245.451,136.584 245.788,136.842 245.788 C 137.100 245.788,138.527 247.058,140.013 248.611 C 142.579 251.291,143.204 252.083,142.324 251.539 C 142.099 251.400,142.032 251.559,142.167 251.910 C 142.296 252.247,142.539 252.438,142.705 252.335 C 142.987 252.161,144.394 253.430,146.611 255.856 C 147.119 256.411,147.425 257.041,147.292 257.256 C 147.159 257.471,147.627 257.945,148.332 258.310 C 149.037 258.675,149.801 259.183,150.030 259.441 C 150.259 259.698,151.038 260.543,151.762 261.320 C 152.486 262.096,153.118 263.004,153.167 263.337 C 153.274 264.066,154.177 265.213,154.644 265.213 C 155.188 265.213,158.176 268.111,158.176 268.639 C 158.176 268.906,158.533 269.237,158.969 269.376 C 159.405 269.514,159.762 269.972,159.762 270.393 C 159.762 270.815,159.909 271.160,160.089 271.160 C 160.402 271.160,162.186 272.885,164.308 275.240 C 164.857 275.849,165.411 276.767,165.540 277.281 C 165.687 277.868,166.021 278.174,166.435 278.104 C 167.133 277.987,169.274 280.138,169.276 280.957 C 169.276 281.222,169.642 281.634,170.088 281.873 C 170.535 282.112,171.067 282.748,171.272 283.285 C 171.476 283.822,171.958 284.380,172.343 284.524 C 173.260 284.867,177.213 289.062,176.978 289.443 C 176.878 289.605,176.980 289.851,177.205 289.990 C 177.430 290.129,177.495 290.437,177.348 290.675 C 177.176 290.953,177.369 291.031,177.891 290.894 C 178.753 290.669,181.502 293.494,181.236 294.332 C 181.163 294.560,181.223 294.628,181.368 294.483 C 181.688 294.162,183.154 295.352,183.146 295.926 C 183.142 296.150,182.967 296.065,182.755 295.738 C 182.544 295.411,182.368 295.345,182.365 295.591 C 182.362 295.837,182.626 296.260,182.953 296.531 C 183.280 296.803,183.548 296.904,183.548 296.756 C 183.548 296.282,186.966 299.674,187.507 300.684 C 187.794 301.219,188.178 301.565,188.360 301.453 C 188.543 301.340,188.593 301.506,188.472 301.822 C 188.351 302.139,188.445 302.517,188.681 302.663 C 188.918 302.809,189.031 303.058,188.934 303.216 C 188.836 303.373,189.103 303.529,189.527 303.560 C 189.951 303.592,190.786 304.204,191.383 304.921 C 191.980 305.637,192.824 306.583,193.258 307.024 C 193.693 307.465,193.998 308.049,193.935 308.322 C 193.872 308.596,194.631 309.309,195.622 309.907 C 196.613 310.506,197.423 311.225,197.423 311.506 C 197.423 311.787,197.691 312.120,198.018 312.245 C 198.345 312.371,198.612 312.722,198.612 313.026 C 198.612 313.329,198.781 313.578,198.987 313.578 C 199.192 313.578,199.671 314.103,200.050 314.746 C 200.430 315.388,200.841 315.852,200.965 315.776 C 201.400 315.511,204.418 319.057,204.320 319.719 C 204.266 320.088,204.321 320.291,204.443 320.169 C 204.791 319.821,206.177 320.703,206.110 321.230 C 205.977 322.296,206.182 322.612,206.891 322.426 C 207.418 322.289,207.973 322.673,208.774 323.731 C 209.399 324.556,210.301 325.656,210.778 326.175 C 211.255 326.695,211.558 327.347,211.451 327.626 C 211.339 327.918,211.755 328.339,212.435 328.620 C 213.753 329.166,216.838 332.389,217.560 333.974 C 217.819 334.543,218.651 335.374,219.409 335.821 C 220.167 336.268,221.164 337.244,221.625 337.990 C 222.086 338.736,222.637 339.346,222.851 339.346 C 223.064 339.346,223.128 339.524,222.993 339.742 C 222.858 339.960,222.918 340.139,223.125 340.139 C 223.688 340.139,223.981 341.180,223.451 341.295 C 221.839 341.642,202.577 341.727,202.577 341.386 C 202.577 341.124,196.175 341.008,183.874 341.047 C 169.467 341.092,165.135 340.995,165.011 340.622 C 164.922 340.356,164.676 340.139,164.463 340.139 C 164.250 340.139,164.186 340.317,164.321 340.535 C 164.683 341.120,156.084 341.059,155.497 340.472 C 155.148 340.123,151.727 340.134,141.341 340.518 C 130.884 340.903,127.512 340.913,127.086 340.559 C 126.722 340.258,124.960 340.116,122.035 340.153 C 119.564 340.185,117.206 340.077,116.795 339.914 C 116.384 339.750,110.023 339.737,102.658 339.883 C 95.293 340.030,89.207 340.013,89.133 339.847 C 89.059 339.680,86.885 339.633,84.302 339.742 C 81.719 339.851,79.518 339.799,79.412 339.626 C 79.306 339.453,73.731 339.436,67.024 339.588 C 55.408 339.851,53.173 339.700,54.701 338.755 C 55.337 338.362,55.247 311.728,54.609 311.430 C 54.216 311.247,54.215 311.151,54.603 310.970 C 54.992 310.788,55.041 296.060,54.841 240.207 C 54.650 187.121,54.701 169.673,55.044 169.673 C 55.383 169.673,55.500 163.710,55.500 146.482 C 55.500 128.708,55.389 123.290,55.025 123.290 C 54.655 123.290,54.655 123.185,55.025 122.815 C 55.571 122.268,55.683 95.210,55.237 71.417 L 54.974 57.402 53.000 55.361 C 48.522 50.732,39.863 41.805,33.711 35.474 C 14.475 15.679,4.656 5.552,3.063 3.865 C 2.085 2.830,1.174 1.982,1.039 1.982 C 0.903 1.982,0.793 90.733,0.793 199.207 L 0.793 396.432 175.619 396.432 C 271.774 396.432,350.446 396.370,350.446 396.295 C 350.446 396.219,350.167 395.598,349.826 394.915 C 349.157 393.574,348.464 392.938,348.464 393.664 C 348.464 394.187,346.971 392.713,344.642 389.891 C 343.017 387.923,342.914 387.741,342.914 386.852 C 342.914 386.597,342.810 386.493,342.682 386.621 C 342.152 387.151,337.503 382.549,336.900 380.896 C 336.628 380.154,336.319 379.903,335.881 380.072 C 335.535 380.204,335.342 380.149,335.452 379.948 C 335.690 379.515,334.362 378.159,334.027 378.494 C 333.900 378.621,333.796 378.540,333.796 378.314 C 333.796 378.089,332.987 377.095,331.999 376.107 C 331.011 375.119,330.229 374.159,330.262 373.974 C 330.405 373.168,330.197 372.618,329.834 372.843 C 329.169 373.254,323.800 367.465,324.030 366.586 C 324.139 366.169,324.126 365.930,324.002 366.054 C 323.457 366.599,317.353 360.983,317.765 360.317 C 317.868 360.151,317.767 359.901,317.542 359.762 C 317.317 359.623,317.234 359.345,317.358 359.145 C 317.483 358.943,317.279 358.897,316.903 359.041 C 316.511 359.192,316.322 359.141,316.457 358.923 C 316.586 358.714,316.214 358.324,315.630 358.057 C 315.047 357.790,314.123 356.932,313.578 356.151 C 313.033 355.369,312.275 354.440,311.893 354.085 C 311.511 353.731,311.199 353.194,311.199 352.892 C 311.199 352.589,310.955 352.437,310.654 352.553 C 310.354 352.668,310.131 352.553,310.158 352.298 C 310.186 352.042,310.071 351.792,309.903 351.742 C 309.479 351.615,306.427 348.566,306.340 348.182 C 306.301 348.010,305.817 347.446,305.265 346.929 C 304.713 346.413,304.304 345.838,304.357 345.653 C 304.409 345.468,304.077 345.115,303.619 344.870 C 302.462 344.251,298.539 340.055,298.525 339.422 C 298.519 339.136,298.354 339.001,298.159 339.122 C 297.964 339.242,297.693 338.896,297.557 338.352 C 297.397 337.715,297.030 337.364,296.524 337.364 C 296.092 337.364,295.738 337.204,295.738 337.009 C 295.738 336.814,295.295 336.234,294.754 335.720 C 294.213 335.207,293.767 334.594,293.763 334.358 C 293.759 334.123,293.324 333.699,292.797 333.416 C 292.269 333.134,291.910 332.702,292.000 332.457 C 292.218 331.857,291.628 330.987,290.932 330.885 C 289.876 330.730,284.638 324.831,284.638 323.797 C 284.638 323.627,284.303 323.489,283.892 323.489 C 283.482 323.489,282.700 322.909,282.153 322.200 C 281.607 321.492,280.787 320.466,280.330 319.921 C 279.873 319.376,279.328 318.726,279.119 318.476 C 278.910 318.227,278.823 317.939,278.926 317.836 C 279.029 317.734,278.617 317.341,278.010 316.964 C 276.282 315.888,273.198 312.357,272.933 311.149 C 272.771 310.413,272.506 310.126,272.124 310.273 C 271.812 310.393,271.555 310.338,271.553 310.151 C 271.552 309.965,270.927 309.387,270.166 308.869 C 269.404 308.350,268.781 307.764,268.781 307.567 C 268.781 307.370,268.246 306.685,267.592 306.046 C 266.938 305.406,266.402 304.609,266.402 304.275 C 266.402 303.941,266.209 303.667,265.973 303.667 C 265.461 303.667,261.173 299.646,261.421 299.398 C 261.569 299.250,261.176 298.776,259.068 296.564 C 258.850 296.335,257.825 295.404,256.789 294.495 C 255.753 293.585,254.906 292.608,254.906 292.322 C 254.906 292.036,254.525 291.598,254.059 291.349 C 253.479 291.038,253.360 290.805,253.682 290.606 C 254.213 290.278,253.262 289.293,252.272 289.148 C 251.958 289.102,251.040 288.296,250.231 287.356 C 249.423 286.416,248.347 285.221,247.841 284.700 C 247.335 284.179,246.897 283.429,246.867 283.034 C 246.837 282.638,246.671 282.402,246.498 282.509 C 246.326 282.616,246.184 282.514,246.184 282.283 C 246.184 282.052,246.013 281.863,245.804 281.863 C 245.404 281.863,242.972 279.500,241.625 277.802 C 241.189 277.252,240.701 276.880,240.540 276.975 C 240.379 277.070,240.352 276.873,240.481 276.537 C 240.635 276.136,240.396 275.806,239.783 275.570 C 238.569 275.104,233.658 269.574,234.459 269.574 C 234.580 269.574,234.382 269.226,234.019 268.801 C 233.655 268.376,233.213 268.118,233.036 268.227 C 232.487 268.566,228.157 263.617,228.547 263.095 C 228.654 262.952,228.648 262.898,228.533 262.977 C 228.206 263.200,223.191 258.313,223.191 257.770 C 223.191 257.503,223.010 257.284,222.789 257.284 C 222.568 257.284,222.062 256.750,221.664 256.097 C 221.267 255.443,220.824 255.027,220.679 255.172 C 220.535 255.316,220.416 255.137,220.416 254.774 C 220.416 254.410,220.175 254.113,219.881 254.113 C 219.586 254.113,218.563 253.132,217.606 251.933 C 216.649 250.733,215.709 249.752,215.518 249.752 C 215.327 249.752,215.264 249.395,215.378 248.959 C 215.492 248.522,215.433 248.260,215.246 248.375 C 214.680 248.725,208.519 242.296,208.777 241.624 C 208.902 241.298,208.800 241.031,208.549 241.031 C 207.454 241.031,201.831 235.121,202.084 234.235 C 202.140 234.040,201.694 233.663,201.093 233.398 C 199.892 232.868,198.743 231.544,198.946 230.922 C 199.017 230.704,198.956 230.644,198.811 230.790 C 198.557 231.044,197.027 229.773,197.027 229.308 C 197.027 229.183,196.804 228.846,196.531 228.559 C 196.259 228.271,195.699 227.571,195.286 227.001 C 194.874 226.432,194.334 225.966,194.086 225.966 C 193.628 225.966,191.477 223.723,191.477 223.245 C 191.477 223.101,191.034 222.651,190.493 222.244 C 189.952 221.838,189.605 221.351,189.722 221.162 C 189.838 220.973,189.751 220.505,189.528 220.122 C 189.153 219.478,189.119 219.486,189.082 220.218 L 189.042 221.011 188.733 220.218 C 188.563 219.782,188.250 219.425,188.039 219.425 C 187.827 219.425,187.342 219.113,186.960 218.731 C 186.579 218.350,186.390 218.038,186.541 218.038 C 186.692 218.038,185.930 217.190,184.848 216.155 C 183.766 215.119,182.950 214.068,183.034 213.820 C 183.119 213.571,182.575 212.989,181.826 212.526 C 180.261 211.558,176.713 207.562,177.087 207.188 C 177.225 207.050,177.110 206.938,176.832 206.938 C 176.539 206.938,176.426 206.680,176.564 206.322 C 176.716 205.925,176.640 205.806,176.348 205.986 C 176.099 206.140,175.655 205.937,175.361 205.535 C 175.067 205.133,174.827 204.944,174.827 205.116 C 174.827 205.288,174.247 204.761,173.538 203.946 C 172.830 203.130,171.839 202.041,171.336 201.525 C 170.834 201.010,170.532 200.411,170.666 200.195 C 170.800 199.979,170.620 199.802,170.268 199.802 C 169.915 199.802,169.729 199.636,169.854 199.433 C 169.980 199.230,169.901 198.952,169.679 198.815 C 169.458 198.678,169.274 198.799,169.270 199.085 C 169.266 199.463,169.163 199.444,168.891 199.013 C 168.620 198.584,168.804 198.123,169.567 197.327 C 170.235 196.629,170.714 196.390,170.885 196.667 C 171.039 196.916,171.262 196.669,171.408 196.087 C 171.594 195.347,171.841 195.141,172.323 195.326 C 172.793 195.506,172.918 195.413,172.761 195.001 C 172.639 194.684,172.875 194.009,173.286 193.501 C 173.697 192.993,174.034 192.713,174.034 192.878 C 174.034 193.043,174.480 192.697,175.025 192.109 C 175.570 191.521,176.016 190.952,176.016 190.844 C 176.016 190.737,176.651 189.963,177.428 189.124 C 178.204 188.284,179.051 187.321,179.311 186.982 C 179.570 186.644,180.029 186.312,180.331 186.246 C 181.004 186.098,182.953 184.386,182.953 183.944 C 182.953 183.767,183.622 182.855,184.440 181.916 C 185.258 180.978,185.927 180.069,185.927 179.897 C 185.927 179.725,186.152 179.584,186.427 179.584 C 186.703 179.584,187.111 179.182,187.334 178.692 C 187.557 178.201,187.956 177.844,188.221 177.899 C 188.485 177.953,188.702 177.847,188.702 177.662 C 188.702 177.216,190.099 175.619,190.489 175.619 C 190.658 175.619,191.313 175.078,191.946 174.417 C 192.578 173.755,193.266 173.320,193.475 173.449 C 193.684 173.578,193.855 173.510,193.855 173.297 C 193.855 173.085,193.665 172.847,193.433 172.770 C 193.201 172.692,194.807 170.793,197.001 168.549 C 199.196 166.305,200.991 164.287,200.991 164.065 C 200.991 163.842,201.212 163.734,201.483 163.824 C 202.052 164.014,202.701 163.444,203.092 162.413 C 203.249 161.997,203.558 161.814,203.825 161.979 C 204.112 162.156,204.178 162.090,204.000 161.803 C 203.836 161.537,204.271 160.797,205.029 160.051 C 205.752 159.341,207.376 157.641,208.638 156.274 C 209.900 154.906,211.104 153.894,211.314 154.023 C 211.523 154.153,211.695 154.059,211.695 153.816 C 211.695 153.572,211.861 153.475,212.064 153.601 C 212.267 153.726,212.545 153.647,212.682 153.426 C 212.819 153.204,212.608 153.005,212.214 152.983 C 211.707 152.955,211.777 152.865,212.451 152.677 C 212.976 152.530,213.452 152.098,213.507 151.717 C 213.563 151.336,214.026 150.561,214.535 149.995 C 216.593 147.706,217.689 146.680,218.075 146.680 C 218.298 146.680,218.363 146.489,218.219 146.257 C 218.076 146.024,218.331 145.736,218.786 145.617 C 219.242 145.498,219.537 145.275,219.442 145.121 C 219.347 144.968,219.644 144.587,220.103 144.274 C 220.561 143.962,221.292 143.311,221.727 142.828 C 222.162 142.345,222.664 142.040,222.843 142.151 C 223.022 142.261,223.282 141.898,223.421 141.343 C 223.560 140.788,224.180 139.909,224.798 139.389 C 225.417 138.869,225.831 138.351,225.719 138.239 C 225.607 138.127,226.152 137.528,226.930 136.907 C 227.708 136.286,228.345 135.652,228.345 135.499 C 228.345 134.966,230.366 133.201,230.977 133.201 C 231.314 133.201,231.684 132.844,231.798 132.408 C 231.912 131.972,232.256 131.615,232.563 131.615 C 232.871 131.615,233.292 131.167,233.501 130.618 C 233.709 130.070,234.425 129.089,235.090 128.438 C 235.756 127.787,236.212 127.255,236.104 127.255 C 235.897 127.255,240.080 123.089,241.219 122.160 C 241.580 121.866,241.978 121.727,242.103 121.852 C 242.229 121.978,242.686 121.416,243.119 120.604 C 243.552 119.792,244.375 118.678,244.946 118.129 C 245.518 117.580,246.071 116.955,246.174 116.741 C 246.585 115.891,247.578 114.965,248.080 114.965 C 248.371 114.965,248.511 114.806,248.391 114.612 C 248.180 114.270,250.079 112.390,252.205 110.836 C 252.777 110.418,253.160 109.856,253.057 109.587 C 252.946 109.299,253.166 109.122,253.590 109.157 C 253.987 109.190,254.265 108.990,254.209 108.711 C 254.152 108.433,254.598 107.709,255.200 107.102 C 255.801 106.495,257.301 104.939,258.532 103.643 C 259.763 102.348,261.419 100.763,262.211 100.120 C 263.137 99.370,263.570 98.736,263.421 98.348 C 263.293 98.016,263.304 97.859,263.444 97.999 C 263.584 98.140,264.352 97.543,265.150 96.673 C 268.821 92.672,270.830 90.783,271.413 90.783 C 271.842 90.783,271.981 90.537,271.845 90.020 C 271.712 89.509,271.814 89.321,272.154 89.452 C 272.434 89.559,272.921 89.279,273.235 88.830 C 273.550 88.381,273.954 88.146,274.133 88.308 C 274.312 88.470,274.331 88.382,274.177 88.113 C 274.010 87.824,274.395 87.135,275.118 86.428 C 275.790 85.771,276.245 85.233,276.129 85.233 C 275.895 85.233,276.357 84.713,279.261 81.708 C 280.337 80.594,281.387 79.683,281.594 79.683 C 282.134 79.683,283.894 77.704,283.673 77.346 C 283.571 77.181,284.103 76.465,284.856 75.755 C 285.608 75.046,286.224 74.301,286.224 74.101 C 286.224 73.900,286.492 73.736,286.819 73.736 C 287.146 73.736,287.413 73.579,287.413 73.387 C 287.413 73.078,290.503 69.772,290.791 69.772 C 291.161 69.772,293.756 67.170,293.756 66.800 C 293.756 66.059,301.050 58.771,301.598 58.964 C 301.877 59.062,302.060 58.992,302.004 58.808 C 301.948 58.624,302.389 57.957,302.983 57.326 C 303.577 56.694,304.063 55.892,304.063 55.543 C 304.063 55.194,316.237 42.734,331.115 27.854 L 358.167 0.800 318.147 0.698 L 278.127 0.595 276.923 1.905"/><path id="path2" fill="#0c8ccc" fill-rule="evenodd" stroke="none" d="M274.703 3.236 C 273.081 5.015,271.442 6.799,271.060 7.200 C 270.679 7.601,270.527 7.929,270.724 7.929 C 271.095 7.929,274.926 4.190,276.780 2.020 L 277.841 0.778 316.621 0.737 C 337.950 0.714,360.664 0.572,367.096 0.421 C 374.459 0.249,360.057 0.120,328.221 0.074 L 277.652 0.000 274.703 3.236 M0.000 198.811 C 0.000 330.294,0.133 396.432,0.396 396.432 C 0.660 396.432,0.793 330.294,0.793 198.811 C 0.793 67.327,0.660 1.189,0.396 1.189 C 0.133 1.189,0.000 67.327,0.000 198.811 M269.252 9.133 C 268.775 9.578,268.385 10.113,268.385 10.323 C 268.385 10.532,268.117 10.704,267.790 10.704 C 267.463 10.704,267.195 10.874,267.195 11.082 C 267.195 11.574,265.290 13.479,264.799 13.479 C 264.591 13.479,264.420 13.725,264.420 14.027 C 264.420 14.329,264.063 14.669,263.627 14.783 C 263.191 14.897,262.834 15.280,262.834 15.635 C 262.834 17.063,265.973 14.136,269.928 9.019 C 270.649 8.085,270.316 8.142,269.252 9.133 M260.141 18.817 C 259.718 19.355,259.244 19.667,259.088 19.511 C 258.932 19.355,258.864 19.488,258.936 19.807 C 259.009 20.126,258.667 20.570,258.176 20.793 C 257.686 21.016,257.284 21.308,257.284 21.441 C 257.284 21.573,256.660 22.325,255.897 23.111 C 254.649 24.396,254.143 25.372,254.725 25.372 C 255.114 25.372,259.267 21.089,259.267 20.687 C 259.267 20.472,259.936 19.748,260.753 19.080 C 261.762 18.256,262.026 17.862,261.575 17.853 C 261.209 17.845,260.564 18.279,260.141 18.817 M250.743 28.848 C 249.653 30.057,248.146 31.633,247.393 32.349 C 246.359 33.332,246.209 33.623,246.777 33.540 C 247.191 33.479,247.598 33.222,247.683 32.968 C 247.767 32.715,248.089 32.507,248.398 32.507 C 248.707 32.507,248.962 32.374,248.966 32.210 C 248.970 32.047,249.845 30.976,250.910 29.832 C 251.975 28.687,252.730 27.748,252.588 27.744 C 252.445 27.741,252.571 27.585,252.867 27.397 C 253.163 27.210,253.252 26.965,253.065 26.852 C 252.878 26.740,251.833 27.638,250.743 28.848 M244.599 35.282 C 244.272 35.494,244.162 35.669,244.356 35.673 C 244.549 35.676,244.034 36.214,243.211 36.868 C 242.388 37.522,241.863 38.057,242.044 38.057 C 242.226 38.057,241.770 38.503,241.031 39.049 C 240.292 39.594,239.854 40.040,240.058 40.040 C 240.261 40.040,239.935 40.496,239.333 41.055 C 238.731 41.613,238.354 42.257,238.495 42.485 C 238.647 42.731,239.146 42.438,239.717 41.767 C 240.248 41.144,241.386 39.893,242.244 38.987 C 243.103 38.081,243.806 37.144,243.806 36.906 C 243.806 36.667,243.978 36.472,244.188 36.472 C 244.399 36.472,244.762 36.115,244.995 35.679 C 245.475 34.783,245.434 34.742,244.599 35.282 M232.933 47.756 C 231.204 49.591,229.632 51.415,229.438 51.810 C 229.140 52.417,229.181 52.409,229.707 51.758 C 230.048 51.334,230.327 51.147,230.327 51.341 C 230.327 51.534,231.308 50.696,232.507 49.477 C 233.707 48.259,234.688 47.070,234.688 46.836 C 234.688 46.602,235.024 46.231,235.434 46.011 C 236.186 45.609,236.890 44.392,236.360 44.410 C 236.204 44.415,234.661 45.921,232.933 47.756 M226.884 54.271 C 226.765 54.729,226.521 55.104,226.342 55.104 C 225.892 55.104,221.606 59.432,221.606 59.887 C 221.606 60.091,221.775 60.258,221.982 60.258 C 222.950 60.258,228.178 54.104,227.544 53.711 C 227.288 53.553,227.011 53.789,226.884 54.271 M55.196 66.997 C 55.340 79.369,56.059 79.440,56.202 67.096 C 56.295 59.023,56.232 57.879,55.699 57.879 C 55.165 57.879,55.103 59.013,55.196 66.997 M299.793 60.139 C 299.099 60.916,298.626 61.704,298.741 61.891 C 298.857 62.078,298.707 62.137,298.408 62.022 C 297.791 61.785,293.503 66.480,293.939 66.915 C 294.089 67.066,294.388 66.874,294.603 66.490 C 294.818 66.106,295.162 65.895,295.366 66.021 C 295.571 66.147,295.738 66.017,295.738 65.732 C 295.738 65.447,296.674 64.318,297.819 63.223 C 300.796 60.377,301.794 59.183,301.400 58.939 C 301.210 58.822,300.487 59.361,299.793 60.139 M217.540 64.145 C 214.333 67.396,212.488 69.493,212.488 69.885 C 212.488 70.370,213.558 69.573,214.999 68.014 C 215.617 67.346,217.003 65.874,218.077 64.745 C 220.529 62.168,220.035 61.617,217.540 64.145 M292.234 68.583 C 291.518 69.237,290.875 69.772,290.805 69.772 C 290.507 69.772,287.413 73.069,287.413 73.387 C 287.413 73.579,287.146 73.736,286.819 73.736 C 286.492 73.736,286.224 73.894,286.224 74.088 C 286.224 74.281,285.582 75.062,284.798 75.824 C 284.013 76.586,283.543 77.315,283.752 77.445 C 284.128 77.677,286.940 74.902,286.690 74.545 C 286.620 74.445,286.818 74.266,287.132 74.148 C 287.660 73.950,294.023 67.393,293.688 67.393 C 293.604 67.393,292.951 67.929,292.234 68.583 M210.406 71.799 C 209.589 72.695,208.920 73.548,208.920 73.695 C 208.920 73.842,208.368 74.288,207.695 74.686 C 206.780 75.226,206.584 75.523,206.920 75.860 C 207.257 76.196,207.919 75.717,209.534 73.967 C 210.724 72.679,211.609 71.536,211.501 71.428 C 211.393 71.321,211.504 70.993,211.747 70.700 C 212.739 69.505,211.791 70.282,210.406 71.799 M205.740 76.719 C 205.465 77.052,205.349 77.434,205.484 77.569 C 205.772 77.856,206.938 76.970,206.938 76.463 C 206.938 75.917,206.291 76.055,205.740 76.719 M279.261 81.708 C 276.357 84.713,275.895 85.233,276.129 85.233 C 276.245 85.233,275.781 85.780,275.097 86.448 C 274.414 87.116,273.945 87.755,274.057 87.866 C 274.290 88.099,281.863 80.461,281.863 79.993 C 281.863 79.295,281.115 79.788,279.261 81.708 M199.666 83.287 C 196.758 86.299,195.942 87.623,197.791 86.328 C 198.240 86.014,198.490 85.639,198.346 85.495 C 198.202 85.351,198.381 85.233,198.745 85.233 C 199.108 85.233,199.405 85.056,199.405 84.840 C 199.405 84.623,199.936 83.974,200.584 83.396 C 201.232 82.819,201.667 82.193,201.551 82.006 C 201.435 81.818,201.542 81.665,201.789 81.665 C 202.253 81.665,203.370 80.705,203.370 80.306 C 203.370 79.657,202.476 80.376,199.666 83.287 M191.517 91.956 C 188.253 95.215,187.998 95.540,188.702 95.540 C 189.047 95.540,189.917 94.696,194.320 90.088 C 196.730 87.566,194.274 89.203,191.517 91.956 M268.663 92.900 C 267.617 94.025,266.071 95.689,265.227 96.597 C 264.383 97.505,263.587 98.176,263.459 98.087 C 263.330 97.998,263.389 98.123,263.591 98.365 C 263.846 98.670,264.383 98.378,265.352 97.410 C 266.119 96.643,266.876 96.132,267.034 96.274 C 267.193 96.415,267.214 96.340,267.081 96.106 C 266.814 95.636,268.180 94.279,268.549 94.648 C 268.677 94.775,268.781 94.634,268.781 94.335 C 268.781 94.035,269.442 93.113,270.249 92.286 C 271.080 91.435,271.467 90.799,271.141 90.819 C 270.824 90.839,269.709 91.776,268.663 92.900 M185.205 98.516 C 184.730 99.063,184.341 99.688,184.341 99.904 C 184.341 100.120,184.103 100.297,183.813 100.297 C 183.523 100.297,183.047 100.743,182.755 101.288 C 182.463 101.833,181.987 102.279,181.697 102.279 C 181.407 102.279,181.169 102.547,181.169 102.874 C 181.169 103.201,180.997 103.469,180.785 103.469 C 180.574 103.469,180.512 103.756,180.646 104.107 C 180.875 104.702,184.297 101.463,184.330 100.620 C 184.336 100.470,185.010 99.713,185.828 98.938 C 186.795 98.021,187.097 97.528,186.692 97.526 C 186.350 97.524,185.681 97.970,185.205 98.516 M258.542 103.535 C 257.305 104.880,255.713 106.591,255.004 107.337 C 253.907 108.491,253.619 109.415,254.358 109.415 C 254.467 109.415,254.462 109.263,254.347 109.077 C 254.232 108.891,254.578 108.538,255.116 108.292 C 255.655 108.047,256.095 107.694,256.095 107.507 C 256.095 107.320,256.898 106.353,257.879 105.358 C 258.860 104.363,259.663 103.611,259.663 103.689 C 259.663 103.766,260.109 103.383,260.654 102.838 C 261.199 102.293,261.645 101.677,261.645 101.469 C 261.645 100.581,260.647 101.245,258.542 103.535 M177.645 106.794 C 176.929 107.532,176.511 108.240,176.717 108.367 C 177.136 108.627,178.543 107.206,178.918 106.145 C 179.253 105.194,179.138 105.253,177.645 106.794 M172.645 112.051 C 170.901 113.936,168.471 116.526,167.244 117.806 C 165.914 119.193,165.185 120.239,165.439 120.395 C 165.833 120.639,170.466 115.933,170.466 115.289 C 170.466 115.131,170.912 114.555,171.457 114.010 C 172.002 113.465,172.448 113.120,172.448 113.242 C 172.448 113.365,173.340 112.569,174.430 111.473 C 176.257 109.636,176.856 108.622,176.114 108.622 C 175.949 108.622,174.388 110.165,172.645 112.051 M249.427 113.108 C 248.726 113.831,248.275 114.545,248.424 114.694 C 248.573 114.843,248.437 114.965,248.122 114.965 C 247.585 114.965,246.597 115.866,246.174 116.741 C 246.071 116.955,245.496 117.599,244.896 118.172 C 244.296 118.745,243.806 119.359,243.806 119.536 C 243.806 119.713,243.509 120.229,243.147 120.682 C 242.785 121.136,243.365 120.617,244.435 119.530 C 245.506 118.443,246.530 117.600,246.709 117.657 C 246.889 117.714,246.943 117.610,246.830 117.426 C 246.716 117.243,247.417 116.324,248.386 115.384 C 249.356 114.445,250.149 113.520,250.149 113.330 C 250.149 113.139,250.397 112.983,250.701 112.983 C 251.005 112.983,251.356 112.716,251.481 112.389 C 251.881 111.347,250.750 111.743,249.427 113.108 M163.801 121.506 C 163.327 122.052,163.033 122.498,163.148 122.498 C 163.591 122.498,165.312 121.200,165.312 120.866 C 165.312 120.230,164.676 120.500,163.801 121.506 M241.103 122.220 C 239.479 123.698,235.933 127.255,236.083 127.255 C 236.180 127.255,235.638 127.894,234.879 128.676 C 234.120 129.458,233.499 130.344,233.499 130.644 C 233.499 131.146,239.611 125.038,241.773 122.375 C 242.391 121.613,241.895 121.499,241.103 122.220 M161.150 124.480 C 161.015 124.698,161.172 124.876,161.499 124.876 C 161.826 124.876,162.204 124.698,162.339 124.480 C 162.474 124.262,162.316 124.083,161.989 124.083 C 161.662 124.083,161.284 124.262,161.150 124.480 M156.488 129.336 C 154.366 131.571,152.629 133.453,152.628 133.518 C 152.627 133.583,151.382 134.900,149.861 136.445 C 148.340 137.991,147.203 139.429,147.335 139.642 C 147.467 139.855,148.538 138.984,149.716 137.705 C 150.894 136.427,152.432 134.759,153.134 133.999 C 153.836 133.238,154.383 132.525,154.349 132.413 C 154.316 132.301,154.539 131.980,154.845 131.699 C 155.151 131.418,155.401 131.293,155.401 131.422 C 155.401 131.739,159.217 127.724,160.210 126.363 C 161.864 124.096,160.208 125.418,156.488 129.336 M229.237 134.248 C 228.746 134.778,228.345 135.339,228.345 135.495 C 228.345 135.650,227.708 136.286,226.930 136.907 C 226.152 137.528,225.602 138.123,225.709 138.229 C 225.815 138.336,225.337 138.928,224.646 139.545 C 223.955 140.163,223.509 140.787,223.654 140.932 C 223.929 141.206,231.120 134.058,231.120 133.511 C 231.120 132.906,230.116 133.299,229.237 134.248 M142.902 143.806 C 141.668 145.059,140.675 146.174,140.696 146.283 C 140.717 146.392,140.553 146.482,140.331 146.482 C 139.992 146.482,138.751 148.398,138.751 148.922 C 138.751 149.015,139.240 148.637,139.837 148.083 C 140.435 147.530,141.059 147.076,141.225 147.076 C 141.391 147.076,141.526 146.809,141.526 146.482 C 141.526 146.155,141.671 145.887,141.847 145.887 C 142.024 145.887,143.015 144.906,144.050 143.707 C 146.526 140.839,145.756 140.905,142.902 143.806 M221.557 143.013 C 221.216 143.394,220.561 143.962,220.103 144.274 C 219.644 144.587,219.347 144.968,219.442 145.121 C 219.537 145.275,219.242 145.498,218.786 145.617 C 218.331 145.736,218.076 146.024,218.219 146.257 C 218.363 146.489,218.298 146.680,218.075 146.680 C 217.303 146.680,213.094 151.386,213.506 151.789 C 213.642 151.922,214.240 151.452,214.835 150.743 C 215.429 150.035,216.096 149.455,216.318 149.455 C 216.540 149.455,216.929 148.999,217.183 148.441 C 217.437 147.884,217.827 147.541,218.049 147.678 C 218.272 147.816,218.405 147.756,218.345 147.546 C 218.285 147.336,219.278 146.073,220.551 144.741 C 221.825 143.409,222.712 142.319,222.522 142.319 C 222.333 142.319,221.899 142.631,221.557 143.013 M136.648 150.620 C 136.270 151.261,135.594 151.901,135.147 152.043 C 134.659 152.198,134.419 152.525,134.548 152.860 C 134.666 153.168,134.603 153.419,134.409 153.419 C 133.812 153.419,130.955 156.454,130.955 157.088 C 130.955 157.443,131.814 156.865,133.069 155.664 C 134.232 154.552,135.183 153.426,135.183 153.163 C 135.183 152.899,135.601 152.355,136.111 151.954 C 137.126 151.156,138.181 149.455,137.661 149.455 C 137.483 149.455,137.027 149.979,136.648 150.620 M208.625 156.272 C 207.370 157.623,205.585 159.516,204.658 160.479 C 202.924 162.281,202.527 163.080,203.566 162.681 C 203.891 162.556,204.059 162.294,203.939 162.099 C 203.818 161.904,203.868 161.744,204.051 161.744 C 204.548 161.744,207.133 159.293,207.154 158.802 C 207.164 158.567,207.361 158.411,207.592 158.455 C 207.824 158.499,208.247 158.097,208.533 157.563 C 208.820 157.028,209.302 156.591,209.605 156.591 C 209.908 156.591,210.053 156.425,209.928 156.223 C 209.803 156.020,210.022 155.753,210.415 155.628 C 211.013 155.438,211.606 153.816,211.078 153.816 C 210.983 153.816,209.879 154.921,208.625 156.272 M126.583 161.279 C 125.451 162.516,124.059 164.039,123.489 164.663 C 122.920 165.286,122.552 165.896,122.673 166.016 C 122.984 166.327,126.455 162.843,126.459 162.216 C 126.461 161.914,126.668 161.816,126.957 161.983 C 127.230 162.140,127.329 162.130,127.178 161.962 C 127.026 161.794,127.428 161.214,128.070 160.674 C 129.173 159.746,129.595 158.933,128.940 159.000 C 128.776 159.016,127.716 160.042,126.583 161.279 M200.991 164.098 C 200.991 164.302,199.196 166.305,197.001 168.549 C 194.784 170.816,193.227 172.701,193.498 172.791 C 193.765 172.881,194.196 172.664,194.455 172.310 C 194.713 171.957,195.041 171.784,195.183 171.926 C 195.325 172.068,195.441 171.976,195.441 171.721 C 195.441 171.467,195.457 171.186,195.477 171.096 C 195.497 171.007,196.924 169.523,198.649 167.799 C 201.573 164.874,202.345 163.726,201.388 163.726 C 201.169 163.726,200.991 163.893,200.991 164.098 M121.015 167.096 C 120.832 167.422,119.209 169.209,117.408 171.066 C 115.606 172.922,114.247 174.626,114.386 174.851 C 114.531 175.086,115.170 174.686,115.892 173.906 C 119.591 169.909,120.515 168.823,120.515 168.473 C 120.515 168.261,120.694 168.087,120.912 168.087 C 121.130 168.087,121.308 167.834,121.308 167.526 C 121.308 167.217,121.531 166.874,121.804 166.764 C 122.167 166.617,122.173 166.556,121.823 166.533 C 121.562 166.516,121.198 166.769,121.015 167.096 M54.711 217.047 C 54.705 248.616,54.835 264.420,55.101 264.420 C 55.367 264.420,55.500 248.610,55.500 217.047 C 55.500 186.238,55.364 169.673,55.110 169.673 C 54.857 169.673,54.717 186.245,54.711 217.047 M191.080 175.223 C 191.080 175.441,190.878 175.619,190.631 175.619 C 190.133 175.619,188.702 177.135,188.702 177.662 C 188.702 177.847,188.485 177.953,188.221 177.899 C 187.956 177.844,187.557 178.201,187.334 178.692 C 187.111 179.182,186.703 179.584,186.427 179.584 C 186.152 179.584,185.927 179.730,185.927 179.909 C 185.927 180.088,185.397 180.827,184.750 181.552 C 184.102 182.277,183.658 183.009,183.763 183.179 C 183.868 183.349,183.640 183.570,183.256 183.670 C 182.616 183.837,182.615 183.856,183.237 183.899 C 183.611 183.924,184.085 183.631,184.290 183.247 C 184.495 182.864,186.285 180.895,188.268 178.872 C 191.936 175.130,192.177 174.827,191.477 174.827 C 191.259 174.827,191.080 175.005,191.080 175.223 M108.748 180.264 C 106.886 182.168,105.585 183.791,105.850 183.879 C 106.114 183.967,107.384 182.903,108.671 181.514 C 109.959 180.125,111.467 178.499,112.023 177.899 C 114.558 175.164,111.758 177.186,108.748 180.264 M104.350 184.958 C 103.865 185.297,103.469 185.833,103.469 186.147 C 103.469 186.462,103.191 186.720,102.851 186.720 C 102.511 186.720,102.350 186.910,102.494 187.142 C 102.811 187.656,104.272 186.453,104.147 185.780 C 104.101 185.534,104.346 185.352,104.691 185.376 C 105.036 185.400,105.319 185.177,105.319 184.881 C 105.319 184.224,105.409 184.216,104.350 184.958 M181.314 185.726 C 181.189 186.052,180.933 186.224,180.746 186.108 C 180.559 185.992,180.087 186.230,179.697 186.635 C 177.953 188.451,176.016 190.666,176.016 190.844 C 176.016 190.952,175.570 191.521,175.025 192.109 C 174.480 192.697,174.034 193.043,174.034 192.878 C 174.034 192.713,173.693 192.998,173.277 193.512 C 172.862 194.026,172.607 194.586,172.713 194.756 C 172.895 195.051,177.578 190.459,179.209 188.385 C 179.633 187.846,179.980 187.531,179.980 187.685 C 179.980 188.107,180.979 187.023,181.517 186.018 C 181.777 185.532,181.889 185.134,181.766 185.134 C 181.642 185.134,181.439 185.400,181.314 185.726 M100.722 188.794 C 100.054 189.506,99.507 190.223,99.506 190.387 C 99.505 190.550,99.228 190.684,98.889 190.684 C 98.551 190.684,98.087 191.219,97.859 191.873 C 97.626 192.543,97.262 192.949,97.026 192.802 C 96.771 192.645,96.725 192.734,96.908 193.031 C 97.131 193.392,97.401 193.314,97.945 192.729 C 98.349 192.295,98.999 191.696,99.390 191.397 C 100.918 190.228,102.729 187.989,102.341 187.748 C 102.118 187.611,101.390 188.081,100.722 188.794 M94.329 195.757 C 92.711 197.469,92.692 197.973,94.183 199.554 C 94.929 200.345,95.622 200.991,95.725 200.991 C 96.124 200.991,95.378 199.676,94.457 198.754 C 93.417 197.714,93.429 197.668,95.293 195.540 C 96.403 194.274,95.550 194.466,94.329 195.757 M169.617 197.305 C 169.048 197.915,168.663 198.634,168.762 198.903 C 168.875 199.210,169.312 198.953,169.936 198.212 C 171.238 196.664,170.957 195.867,169.617 197.305 M170.466 200.427 C 170.466 200.539,170.867 201.043,171.358 201.547 C 171.848 202.051,172.830 203.130,173.538 203.946 C 174.247 204.761,174.827 205.329,174.827 205.208 C 174.827 205.086,175.337 205.470,175.960 206.061 C 176.583 206.652,177.034 207.245,176.961 207.378 C 176.743 207.781,181.823 212.886,182.409 212.853 C 182.811 212.830,182.824 212.769,182.458 212.621 C 182.185 212.512,181.962 212.282,181.962 212.113 C 181.962 211.943,180.937 210.748,179.683 209.459 C 178.429 208.169,176.075 205.652,174.451 203.866 C 171.828 200.982,170.466 199.806,170.466 200.427 M96.348 201.685 C 96.394 202.601,99.101 205.121,99.554 204.668 C 99.931 204.291,99.828 204.104,99.076 203.803 C 98.549 203.592,98.277 203.409,98.472 203.395 C 98.668 203.381,98.346 202.924,97.758 202.379 C 96.641 201.343,96.323 201.187,96.348 201.685 M100.003 205.661 C 100.073 206.592,101.487 207.681,101.487 206.804 C 101.487 206.509,101.139 205.953,100.715 205.569 C 99.975 204.900,99.946 204.904,100.003 205.661 M102.546 208.646 C 104.163 210.702,107.551 214.251,107.115 213.432 C 106.869 212.970,106.796 212.451,106.952 212.278 C 107.107 212.105,107.025 212.084,106.768 212.232 C 106.504 212.383,106.203 212.195,106.077 211.800 C 105.769 210.840,104.300 209.248,102.899 208.356 L 101.735 207.615 102.546 208.646 M183.030 213.931 C 182.890 214.070,183.685 215.052,184.796 216.111 C 185.907 217.171,186.692 218.038,186.541 218.038 C 186.390 218.038,186.579 218.350,186.960 218.731 C 187.342 219.113,187.827 219.425,188.039 219.425 C 188.250 219.425,188.563 219.782,188.733 220.218 C 188.903 220.654,189.055 220.808,189.070 220.561 C 189.086 220.313,188.832 219.599,188.506 218.975 C 188.180 218.350,187.913 217.979,187.911 218.151 C 187.910 218.322,187.329 217.790,186.620 216.970 C 185.433 215.594,183.533 213.677,183.358 213.677 C 183.317 213.677,183.170 213.791,183.030 213.931 M108.066 214.365 C 107.925 214.506,108.163 214.989,108.594 215.438 C 109.026 215.886,110.364 217.324,111.569 218.632 C 112.774 219.941,114.120 221.374,114.561 221.818 C 115.001 222.261,115.362 222.871,115.362 223.172 C 115.362 223.473,115.466 223.616,115.593 223.488 C 115.963 223.119,117.329 224.477,117.062 224.947 C 116.929 225.180,116.965 225.241,117.142 225.080 C 117.319 224.920,117.699 225.099,117.986 225.477 C 118.273 225.855,118.514 225.963,118.521 225.718 C 118.528 225.472,118.266 225.048,117.939 224.777 C 117.611 224.506,117.344 224.060,117.344 223.786 C 117.344 223.512,116.497 222.568,115.461 221.687 C 114.425 220.806,112.775 219.027,111.794 217.734 C 109.887 215.219,108.482 213.950,108.066 214.365 M190.387 222.148 C 190.986 222.663,191.477 223.180,191.477 223.296 C 191.477 223.809,193.693 225.966,194.220 225.966 C 194.595 225.966,194.349 225.498,193.530 224.652 C 192.829 223.929,192.393 223.187,192.560 223.003 C 192.727 222.818,192.676 222.775,192.445 222.906 C 192.214 223.037,191.699 222.708,191.299 222.176 C 190.900 221.644,190.286 221.209,189.935 221.210 C 189.475 221.210,189.602 221.473,190.387 222.148 M119.722 227.525 C 119.722 227.947,120.082 228.406,120.521 228.545 C 120.960 228.684,121.217 228.964,121.092 229.166 C 120.967 229.369,121.148 229.534,121.493 229.534 C 121.838 229.534,122.281 229.956,122.477 230.471 C 122.673 230.987,123.140 231.526,123.515 231.670 C 124.494 232.046,124.588 231.762,123.788 230.843 C 119.835 226.299,119.722 226.207,119.722 227.525 M196.070 228.094 C 196.207 228.450,196.478 228.741,196.673 228.741 C 196.867 228.741,197.027 229.009,197.027 229.336 C 197.027 229.663,197.171 229.931,197.347 229.931 C 197.523 229.931,198.192 230.633,198.834 231.492 C 199.884 232.898,201.388 233.868,201.388 233.139 C 201.388 232.602,199.152 230.712,198.861 231.003 C 198.701 231.163,198.654 231.032,198.756 230.711 C 198.863 230.374,198.286 229.565,197.381 228.787 C 196.523 228.049,195.933 227.737,196.070 228.094 M125.669 234.093 C 125.669 234.420,125.937 234.688,126.264 234.688 C 126.591 234.688,126.858 234.880,126.858 235.115 C 126.858 235.740,129.985 238.829,130.300 238.514 C 130.446 238.368,130.115 237.759,129.563 237.161 C 129.010 236.564,128.057 235.496,127.445 234.787 C 126.233 233.386,125.669 233.165,125.669 234.093 M202.047 234.186 C 201.775 234.626,205.338 238.784,207.501 240.551 C 209.032 241.802,207.914 240.077,205.847 238.000 C 204.594 236.740,203.277 235.284,202.921 234.764 C 202.565 234.245,202.172 233.984,202.047 234.186 M130.873 239.742 C 131.172 240.124,131.640 240.579,131.913 240.753 C 132.185 240.927,132.408 241.359,132.408 241.711 C 132.408 242.064,132.524 242.236,132.666 242.094 C 132.808 241.952,133.160 242.145,133.447 242.524 C 133.931 243.161,133.970 243.150,133.981 242.370 C 133.989 241.845,133.474 241.175,132.609 240.586 C 131.848 240.068,131.223 239.509,131.222 239.346 C 131.220 239.182,131.019 239.049,130.774 239.049 C 130.483 239.049,130.517 239.288,130.873 239.742 M209.025 241.759 C 208.573 242.038,211.943 246.009,213.776 247.357 C 215.248 248.440,214.379 246.972,212.344 244.939 C 211.175 243.770,210.057 242.511,209.860 242.139 C 209.652 241.744,209.304 241.586,209.025 241.759 M134.390 243.126 C 134.390 243.774,135.886 245.066,136.147 244.643 C 136.256 244.466,135.906 243.939,135.368 243.472 C 134.759 242.942,134.390 242.812,134.390 243.126 M137.265 246.625 C 137.397 247.211,141.549 251.338,142.007 251.338 C 142.204 251.338,142.240 251.561,142.086 251.833 C 141.885 252.189,141.935 252.211,142.263 251.911 C 142.598 251.604,142.060 250.786,140.240 248.834 C 137.857 246.279,137.052 245.681,137.265 246.625 M215.263 249.356 C 215.263 249.574,215.398 249.752,215.564 249.752 C 215.730 249.752,216.649 250.733,217.606 251.933 C 218.563 253.132,219.586 254.113,219.881 254.113 C 220.175 254.113,220.416 254.410,220.416 254.774 C 220.416 255.137,220.535 255.316,220.679 255.172 C 220.824 255.027,221.279 255.463,221.692 256.141 C 222.104 256.819,222.545 257.270,222.672 257.143 C 222.798 257.017,222.605 256.506,222.241 256.008 C 221.877 255.511,221.139 254.498,220.601 253.757 C 220.063 253.016,219.622 252.570,219.621 252.766 C 219.619 252.962,219.285 252.617,218.878 251.999 C 218.471 251.381,218.026 250.891,217.889 250.909 C 217.753 250.927,217.650 250.841,217.662 250.717 C 217.686 250.456,215.843 248.959,215.497 248.959 C 215.368 248.959,215.263 249.138,215.263 249.356 M142.716 252.410 C 142.716 252.616,143.156 253.199,143.694 253.705 C 144.233 254.211,144.562 254.805,144.426 255.025 C 144.286 255.251,144.376 255.303,144.635 255.143 C 144.906 254.975,145.273 255.262,145.543 255.853 C 145.981 256.816,146.990 257.503,147.385 257.108 C 147.492 257.001,147.202 256.506,146.741 256.009 C 146.280 255.511,145.493 254.658,144.993 254.113 C 143.706 252.710,142.716 251.970,142.716 252.410 M223.219 257.436 C 223.191 258.197,225.839 261.232,226.561 261.267 C 226.779 261.278,227.624 262.215,228.439 263.349 C 231.336 267.383,233.102 269.064,233.102 267.790 C 233.102 267.463,232.913 267.195,232.682 267.195 C 232.451 267.195,232.373 267.017,232.507 266.799 C 232.642 266.581,232.445 266.402,232.068 266.402 C 231.692 266.402,231.478 266.309,231.592 266.194 C 231.707 266.080,230.321 264.438,228.513 262.547 C 226.705 260.655,225.330 258.937,225.459 258.729 C 225.587 258.521,225.497 258.472,225.259 258.619 C 225.021 258.766,224.642 258.571,224.417 258.185 C 224.192 257.799,223.990 257.661,223.968 257.879 C 223.946 258.097,223.775 257.919,223.588 257.483 C 223.269 256.740,223.245 256.737,223.219 257.436 M148.662 259.267 C 148.895 259.703,149.246 260.059,149.442 260.059 C 149.638 260.059,149.910 260.413,150.047 260.844 C 150.184 261.276,150.508 261.588,150.767 261.538 C 151.027 261.488,151.224 261.625,151.206 261.843 C 151.156 262.437,152.970 264.033,153.225 263.620 C 153.552 263.091,149.391 258.474,148.587 258.474 C 148.395 258.474,148.429 258.831,148.662 259.267 M154.616 265.510 C 154.621 265.674,155.513 266.747,156.598 267.895 C 157.684 269.043,158.573 270.168,158.573 270.396 C 158.573 270.624,158.751 270.700,158.969 270.565 C 159.187 270.430,159.366 270.491,159.366 270.700 C 159.366 270.910,160.808 272.570,162.572 274.391 C 164.335 276.211,165.560 277.255,165.293 276.710 C 165.026 276.165,164.520 275.432,164.168 275.082 C 163.816 274.731,163.161 274.018,162.713 273.496 C 162.265 272.974,161.417 272.193,160.830 271.759 C 160.243 271.326,159.762 270.669,159.762 270.299 C 159.762 269.930,159.405 269.514,158.969 269.376 C 158.533 269.237,158.176 268.906,158.176 268.639 C 158.176 268.372,157.457 267.492,156.577 266.683 C 154.951 265.188,154.602 264.980,154.616 265.510 M235.098 270.782 C 236.362 272.558,239.118 275.520,239.506 275.520 C 240.242 275.520,239.743 274.696,237.670 272.484 C 236.475 271.211,235.494 270.035,235.489 269.871 C 235.485 269.708,235.201 269.574,234.859 269.574 C 234.347 269.574,234.389 269.786,235.098 270.782 M241.268 277.001 C 241.015 277.254,241.239 277.535,243.816 280.199 C 244.723 281.137,245.625 281.851,245.820 281.785 C 246.014 281.719,245.329 280.773,244.297 279.683 C 243.266 278.593,242.460 277.584,242.506 277.441 C 242.623 277.085,241.561 276.708,241.268 277.001 M165.885 278.331 C 165.762 278.529,165.919 278.692,166.234 278.692 C 166.549 278.692,167.127 279.182,167.519 279.782 C 168.627 281.479,170.419 283.134,170.955 282.955 C 171.240 282.861,170.993 282.501,170.359 282.085 C 169.763 281.695,169.276 281.173,169.276 280.926 C 169.275 279.633,166.427 277.454,165.885 278.331 M246.677 283.107 C 246.951 283.572,247.532 284.342,247.968 284.817 C 248.404 285.292,249.523 286.525,250.454 287.557 C 251.384 288.589,252.319 289.326,252.531 289.195 C 252.911 288.960,252.533 288.318,251.410 287.295 C 251.122 287.033,250.498 286.385,250.022 285.856 C 247.340 282.869,245.783 281.590,246.677 283.107 M172.726 285.596 C 175.200 288.377,176.757 289.800,176.962 289.468 C 177.212 289.064,173.091 284.638,172.467 284.638 C 172.213 284.638,172.097 284.490,172.209 284.308 C 172.321 284.126,172.159 283.978,171.849 283.978 C 171.505 283.978,171.847 284.608,172.726 285.596 M178.190 290.991 C 178.009 291.284,178.153 291.631,178.545 291.851 C 178.908 292.053,179.082 292.431,178.934 292.690 C 178.785 292.950,178.796 293.043,178.957 292.898 C 179.119 292.754,179.881 293.332,180.650 294.184 C 181.419 295.035,182.208 295.634,182.402 295.513 C 182.596 295.393,182.755 295.514,182.755 295.781 C 182.755 296.048,182.867 296.156,183.003 296.019 C 183.139 295.883,182.614 295.095,181.836 294.268 C 181.058 293.442,179.988 292.255,179.458 291.632 C 178.768 290.821,178.408 290.639,178.190 290.991 M253.522 290.988 C 253.659 291.209,253.932 291.291,254.129 291.170 C 254.325 291.048,254.597 291.389,254.732 291.928 C 254.867 292.466,255.776 293.633,256.751 294.521 C 258.750 296.340,259.833 296.711,258.292 295.049 C 257.738 294.451,257.284 293.708,257.284 293.397 C 257.284 293.086,257.180 292.935,257.053 293.063 C 256.696 293.419,255.311 292.081,255.582 291.642 C 255.714 291.429,255.634 291.371,255.405 291.512 C 255.176 291.654,254.887 291.503,254.762 291.177 C 254.637 290.851,254.251 290.585,253.904 290.585 C 253.557 290.585,253.385 290.766,253.522 290.988 M183.548 297.060 C 183.548 297.375,184.516 298.617,185.700 299.820 C 186.883 301.022,187.731 302.151,187.583 302.328 C 187.435 302.505,187.626 302.411,188.008 302.119 C 188.710 301.581,188.985 301.067,188.365 301.450 C 188.180 301.564,187.794 301.219,187.507 300.684 C 186.768 299.303,183.548 296.356,183.548 297.060 M259.617 297.225 C 259.825 297.607,260.357 298.174,260.799 298.486 C 261.241 298.799,261.528 299.175,261.437 299.322 C 261.213 299.685,265.583 303.826,265.878 303.531 C 266.007 303.402,265.508 302.681,264.770 301.928 C 264.033 301.176,262.627 299.653,261.647 298.546 C 259.871 296.539,258.898 295.906,259.617 297.225 M189.891 303.985 C 189.891 304.541,193.668 308.479,193.940 308.207 C 194.084 308.063,193.410 307.120,192.443 306.111 C 191.475 305.101,190.684 304.139,190.684 303.971 C 190.684 303.804,190.505 303.667,190.287 303.667 C 190.069 303.667,189.891 303.810,189.891 303.985 M266.402 304.450 C 266.402 304.688,266.938 305.406,267.592 306.046 C 268.246 306.685,268.781 307.372,268.781 307.572 C 268.781 307.773,269.202 308.212,269.716 308.549 C 270.231 308.887,270.953 309.464,271.321 309.832 C 272.978 311.489,272.129 309.933,270.394 308.133 C 269.324 307.023,268.553 306.010,268.681 305.882 C 268.808 305.754,268.527 305.649,268.054 305.649 C 267.571 305.649,267.195 305.400,267.195 305.078 C 267.195 304.764,267.017 304.396,266.799 304.262 C 266.581 304.127,266.402 304.212,266.402 304.450 M195.045 309.815 C 195.045 310.456,195.919 311.592,196.254 311.385 C 196.461 311.257,196.630 311.318,196.630 311.521 C 196.630 311.724,197.522 312.811,198.612 313.936 C 200.596 315.983,201.471 316.225,199.604 314.210 C 199.058 313.622,198.612 312.990,198.612 312.807 C 198.612 312.623,198.345 312.371,198.018 312.245 C 197.691 312.120,197.423 311.782,197.423 311.495 C 197.423 311.208,196.888 310.658,196.234 310.271 C 195.580 309.885,195.045 309.680,195.045 309.815 M273.001 311.498 C 273.266 312.509,276.562 316.068,278.097 317.000 L 279.286 317.722 278.295 316.603 C 275.163 313.065,272.821 310.807,273.001 311.498 M202.415 318.038 C 205.430 321.389,205.725 321.662,206.016 321.371 C 206.179 321.208,205.784 320.643,205.138 320.116 C 204.493 319.588,204.078 319.150,204.216 319.142 C 204.698 319.115,201.922 316.353,201.412 316.353 C 201.130 316.353,201.581 317.111,202.415 318.038 M279.159 318.499 C 279.447 318.807,280.078 319.565,280.560 320.184 C 283.098 323.436,283.312 323.626,284.079 323.315 C 284.799 323.024,284.793 322.988,283.953 322.597 C 283.467 322.371,282.965 321.855,282.836 321.450 C 282.708 321.045,282.347 320.714,282.035 320.714 C 281.722 320.714,281.467 320.511,281.467 320.263 C 281.467 319.720,279.607 317.939,279.039 317.939 C 278.817 317.939,278.871 318.191,279.159 318.499 M206.985 322.993 C 208.336 324.724,211.273 327.610,211.477 327.406 C 211.601 327.282,211.299 326.742,210.807 326.206 C 210.314 325.670,209.411 324.571,208.800 323.765 C 208.190 322.959,207.410 322.299,207.067 322.299 C 206.532 322.299,206.520 322.397,206.985 322.993 M285.050 324.377 C 285.028 324.801,287.638 328.153,289.227 329.743 C 290.052 330.567,290.585 330.875,290.585 330.526 C 290.585 329.947,285.077 323.830,285.050 324.377 M212.488 328.935 C 212.488 329.269,217.123 334.192,217.437 334.192 C 217.873 334.192,217.048 332.904,215.526 331.206 C 213.879 329.367,212.488 328.328,212.488 328.935 M292.012 332.542 C 291.896 332.730,292.241 333.119,292.779 333.407 C 293.316 333.694,293.759 334.123,293.763 334.358 C 293.767 334.594,294.213 335.207,294.754 335.720 C 295.295 336.234,295.738 336.814,295.738 337.009 C 295.738 337.204,296.092 337.364,296.524 337.364 C 297.037 337.364,297.398 337.717,297.565 338.384 C 297.743 339.095,297.947 339.278,298.236 338.989 C 298.525 338.700,298.300 338.247,297.492 337.495 C 296.855 336.902,296.392 336.228,296.465 335.998 C 296.538 335.768,296.472 335.705,296.319 335.858 C 296.166 336.011,295.417 335.387,294.655 334.471 C 293.104 332.605,292.325 332.036,292.012 332.542 M218.038 335.212 C 218.038 335.612,221.159 338.553,221.584 338.553 C 222.341 338.553,220.826 336.657,219.393 335.811 C 218.647 335.372,218.038 335.102,218.038 335.212 M54.583 338.809 C 53.848 339.545,55.428 339.742,62.033 339.742 C 69.113 339.742,70.565 339.606,70.565 338.939 C 70.565 338.563,54.956 338.437,54.583 338.809 M222.368 339.685 C 222.579 340.079,223.073 340.652,223.467 340.957 C 224.152 341.489,224.153 341.478,223.488 340.694 C 223.106 340.244,222.890 339.779,223.009 339.660 C 223.128 339.541,222.946 339.337,222.605 339.206 C 222.109 339.015,222.061 339.112,222.368 339.685 M79.402 339.594 C 79.676 339.868,88.083 339.799,88.362 339.521 C 88.458 339.424,86.426 339.346,83.845 339.346 C 81.265 339.346,79.266 339.457,79.402 339.594 M89.197 339.742 C 89.197 340.190,94.412 340.198,102.676 339.763 C 107.742 339.497,107.524 339.478,98.612 339.414 C 92.555 339.370,89.197 339.487,89.197 339.742 M298.579 339.698 C 298.837 340.383,302.756 344.409,303.613 344.867 C 304.091 345.123,304.385 345.489,304.266 345.681 C 303.980 346.144,304.745 346.597,305.267 346.275 C 305.499 346.131,305.060 345.530,304.255 344.890 C 303.472 344.269,302.848 343.653,302.867 343.521 C 302.922 343.154,299.223 339.346,298.811 339.346 C 298.611 339.346,298.507 339.504,298.579 339.698 M117.116 340.043 C 117.219 340.146,119.481 340.200,122.143 340.163 C 125.397 340.118,127.075 340.244,127.262 340.547 C 127.574 341.051,145.887 340.650,145.887 340.139 C 145.887 339.984,139.372 339.857,131.409 339.857 C 123.445 339.857,117.014 339.941,117.116 340.043 M156.591 340.396 C 159.843 340.686,164.432 340.710,164.261 340.436 C 164.159 340.273,162.080 340.169,159.640 340.205 C 157.200 340.242,155.828 340.328,156.591 340.396 M169.277 340.507 C 164.880 340.725,165.039 340.746,173.772 341.080 C 181.657 341.383,182.904 341.350,183.428 340.825 C 184.098 340.155,178.770 340.036,169.277 340.507 M202.775 341.328 C 202.614 341.588,205.736 341.724,211.846 341.724 C 217.629 341.724,221.255 341.574,221.407 341.328 C 221.568 341.068,218.446 340.932,212.336 340.932 C 206.553 340.932,202.927 341.082,202.775 341.328 M305.253 346.858 C 305.253 347.066,305.536 347.394,305.883 347.588 C 306.229 347.782,306.528 348.103,306.546 348.301 C 306.592 348.799,309.339 351.412,309.956 351.545 C 310.597 351.682,308.127 348.587,307.361 348.293 C 307.046 348.172,306.916 347.866,307.073 347.613 C 307.250 347.325,307.184 347.259,306.897 347.437 C 306.639 347.596,306.332 347.448,306.199 347.101 C 305.940 346.427,305.253 346.250,305.253 346.858 M311.199 352.924 C 311.199 353.279,311.389 353.688,311.622 353.832 C 312.302 354.252,312.369 353.876,311.761 353.046 C 311.291 352.402,311.199 352.383,311.199 352.924 M312.738 355.104 C 313.254 356.052,315.573 358.375,316.003 358.375 C 316.640 358.375,316.365 357.165,315.668 356.898 C 315.291 356.753,314.561 356.134,314.047 355.522 C 312.997 354.275,312.137 354.000,312.738 355.104 M317.064 359.393 C 317.552 359.735,317.868 360.150,317.765 360.316 C 317.524 360.706,320.896 364.240,322.696 365.484 L 324.083 366.444 323.092 365.284 C 322.547 364.647,321.874 363.980,321.597 363.802 C 321.320 363.625,321.197 363.312,321.323 363.107 C 321.450 362.903,321.371 362.735,321.149 362.735 C 320.927 362.735,319.911 361.843,318.891 360.753 C 317.872 359.663,316.844 358.771,316.607 358.771 C 316.370 358.771,316.576 359.051,317.064 359.393 M323.885 366.910 C 323.885 367.399,327.224 371.094,328.606 372.134 C 329.599 372.882,329.850 372.972,329.436 372.431 C 327.476 369.869,323.885 366.297,323.885 366.910 M330.228 374.086 C 330.228 374.224,331.031 375.139,332.012 376.120 C 332.993 377.101,333.796 378.089,333.796 378.314 C 333.796 378.540,333.912 378.609,334.054 378.467 C 334.196 378.325,334.547 378.518,334.834 378.896 C 335.126 379.280,335.362 379.375,335.369 379.111 C 335.384 378.555,331.100 373.835,330.582 373.835 C 330.387 373.835,330.228 373.948,330.228 374.086 M336.970 381.306 C 336.973 381.633,340.449 385.297,341.633 386.220 C 343.183 387.429,342.585 386.319,340.535 384.181 C 339.445 383.044,338.553 381.967,338.553 381.787 C 338.553 381.607,338.196 381.367,337.760 381.253 C 337.324 381.139,336.968 381.163,336.970 381.306 M344.559 389.792 C 347.538 393.399,348.352 394.125,348.623 393.418 C 348.960 392.541,348.920 392.384,348.437 392.682 C 348.204 392.826,347.916 392.570,347.796 392.111 C 347.676 391.653,347.332 391.278,347.030 391.278 C 346.728 391.278,346.482 391.109,346.482 390.901 C 346.482 390.419,343.707 387.711,343.212 387.711 C 343.008 387.711,343.613 388.647,344.559 389.792 M349.666 394.678 C 349.689 395.342,350.783 396.518,351.237 396.367 C 351.489 396.283,351.241 395.804,350.668 395.265 C 350.110 394.741,349.659 394.477,349.666 394.678"/><path id="path3" fill="#146cd4" fill-rule="evenodd" stroke="none" d="M0.006 0.099 C 0.028 0.423,6.737 7.234,6.728 6.922 C 6.723 6.713,5.474 5.292,3.955 3.766 C 2.435 2.240,1.191 0.857,1.191 0.694 C 1.190 0.530,28.728 0.396,62.387 0.396 L 123.584 0.396 126.299 3.151 C 127.793 4.665,129.099 5.820,129.203 5.716 C 129.307 5.612,128.157 4.284,126.649 2.764 L 123.906 0.000 61.953 0.000 C 27.879 0.000,0.003 0.045,0.006 0.099 M369.177 0.297 C 362.682 0.367,358.771 0.556,358.771 0.800 C 358.771 1.052,362.269 1.121,368.583 0.995 C 373.979 0.887,383.167 0.707,388.999 0.596 L 399.604 0.395 399.604 183.151 C 399.604 283.667,399.470 365.903,399.306 365.899 C 399.143 365.895,397.768 364.557,396.252 362.926 C 394.735 361.295,393.308 359.966,393.080 359.973 C 392.852 359.980,392.934 360.203,393.261 360.469 C 393.588 360.734,394.391 361.576,395.045 362.339 C 395.699 363.102,397.081 364.507,398.115 365.460 L 399.997 367.194 399.999 183.597 L 400.002 0.000 389.793 0.092 C 384.178 0.143,374.901 0.235,369.177 0.297 M355.401 4.091 C 353.311 6.342,352.904 7.121,354.735 5.367 C 355.865 4.285,356.789 3.348,356.789 3.285 C 356.789 2.942,356.094 3.345,355.401 4.091 M129.894 6.541 C 130.038 6.977,130.440 7.632,130.787 7.997 C 131.134 8.361,132.666 10.019,134.192 11.682 C 140.566 18.623,142.777 21.001,146.125 24.513 C 148.066 26.549,149.810 28.511,150.003 28.874 C 150.195 29.237,151.667 30.818,153.273 32.388 C 154.880 33.957,156.200 35.384,156.206 35.559 C 156.226 36.082,162.134 41.863,162.137 41.364 C 162.139 41.111,160.937 39.659,159.465 38.138 C 156.830 35.415,151.996 30.234,146.241 23.963 C 144.629 22.207,141.627 18.961,139.570 16.750 C 137.512 14.538,135.601 12.318,135.322 11.815 C 135.043 11.313,134.809 11.033,134.801 11.193 C 134.785 11.526,131.533 8.246,130.390 6.745 C 129.791 5.958,129.687 5.915,129.894 6.541 M349.257 10.348 C 345.268 14.555,345.184 14.772,348.962 11.109 C 350.868 9.260,352.428 7.699,352.428 7.640 C 352.428 7.195,351.473 8.011,349.257 10.348 M8.791 9.110 C 8.862 9.313,13.743 14.438,19.639 20.498 C 25.534 26.558,33.027 34.281,36.289 37.661 C 39.551 41.041,42.398 43.871,42.616 43.951 C 43.065 44.115,40.262 41.162,29.718 30.363 C 25.692 26.240,21.685 22.119,20.813 21.206 C 15.813 15.970,8.680 8.794,8.791 9.110 M343.780 15.741 C 343.275 16.285,342.931 16.799,343.016 16.884 C 343.100 16.969,343.681 16.505,344.305 15.853 C 344.930 15.201,345.274 14.687,345.069 14.710 C 344.865 14.733,344.285 15.197,343.780 15.741 M341.005 18.516 C 340.500 19.060,340.156 19.574,340.241 19.659 C 340.325 19.744,340.906 19.280,341.530 18.628 C 342.155 17.976,342.499 17.462,342.294 17.485 C 342.090 17.508,341.510 17.972,341.005 18.516 M321.972 37.744 C 312.340 47.384,304.460 55.501,304.460 55.782 C 304.460 56.362,311.061 56.431,317.344 55.918 C 320.315 55.675,319.554 55.616,312.787 55.563 L 304.661 55.500 322.299 37.859 C 332.000 28.157,339.835 20.218,339.711 20.218 C 339.586 20.218,331.604 28.105,321.972 37.744 M162.810 42.299 C 163.118 43.129,163.870 43.992,166.994 47.095 C 168.247 48.338,169.272 49.497,169.274 49.670 C 169.275 49.844,170.690 51.449,172.418 53.238 C 174.145 55.028,176.687 57.725,178.067 59.233 C 179.446 60.741,181.065 62.421,181.665 62.966 C 183.272 64.427,183.538 64.072,172.769 74.836 C 167.277 80.326,162.881 84.916,163.001 85.036 C 163.122 85.157,164.289 84.183,165.595 82.873 C 166.901 81.563,167.877 80.398,167.764 80.285 C 167.651 80.172,167.739 80.079,167.960 80.079 C 168.180 80.079,170.128 78.286,172.287 76.094 C 174.447 73.902,177.775 70.568,179.683 68.684 C 183.546 64.871,183.706 64.420,181.863 62.530 C 181.155 61.804,179.608 60.147,178.425 58.850 C 171.755 51.531,168.397 47.918,166.006 45.487 C 164.534 43.990,163.330 42.609,163.330 42.417 C 163.330 42.226,163.154 41.960,162.938 41.826 C 162.703 41.681,162.652 41.870,162.810 42.299 M45.986 47.406 C 45.986 48.851,56.177 57.879,57.809 57.879 C 58.843 57.879,59.415 57.723,59.267 57.483 C 59.132 57.265,58.254 57.086,57.316 57.086 C 55.648 57.086,55.502 56.974,50.798 52.058 C 48.151 49.293,45.986 47.199,45.986 47.406 M327.651 56.293 C 327.491 56.552,329.761 56.690,334.169 56.690 C 338.413 56.690,340.932 56.542,340.932 56.293 C 340.932 56.045,338.495 55.897,334.414 55.897 C 330.496 55.897,327.798 56.055,327.651 56.293 M343.574 56.558 C 343.129 57.003,343.260 105.451,343.707 105.451 C 343.967 105.451,344.103 96.994,344.103 80.872 C 344.103 67.354,344.044 56.293,343.971 56.293 C 343.898 56.293,343.720 56.412,343.574 56.558 M73.532 57.077 C 73.844 57.582,87.611 57.584,88.404 57.080 C 88.793 56.833,86.279 56.700,81.146 56.696 C 76.137 56.692,73.380 56.830,73.532 57.077 M101.919 59.358 C 105.419 63.033,106.333 63.868,106.582 63.619 C 106.844 63.358,100.267 56.690,99.748 56.690 C 99.545 56.690,100.522 57.890,101.919 59.358 M107.851 65.642 C 108.602 66.423,109.574 67.250,110.010 67.480 C 110.446 67.709,109.973 67.070,108.959 66.060 C 106.807 63.913,105.836 63.548,107.851 65.642 M110.638 68.372 C 114.862 73.131,136.769 95.370,136.769 94.900 C 136.769 94.673,133.471 91.201,129.439 87.184 C 125.408 83.168,122.107 79.746,122.105 79.580 C 122.100 79.191,111.142 68.186,110.761 68.186 C 110.602 68.186,110.547 68.270,110.638 68.372 M289.965 71.455 L 288.801 72.742 289.990 71.759 C 290.644 71.218,291.349 70.639,291.556 70.472 C 291.790 70.283,291.780 70.168,291.531 70.168 C 291.310 70.168,290.606 70.748,289.965 71.455 M153.919 94.153 C 149.287 98.812,145.349 102.717,145.166 102.830 C 144.983 102.943,143.094 101.333,140.969 99.252 C 138.844 97.171,137.030 95.544,136.938 95.636 C 136.846 95.728,138.465 97.517,140.536 99.611 C 142.607 101.706,144.304 103.297,144.307 103.147 C 144.311 102.997,144.466 103.115,144.653 103.410 C 144.904 103.806,146.957 101.977,152.477 96.438 C 160.699 88.188,163.127 85.616,162.652 85.656 C 162.480 85.670,158.550 89.494,153.919 94.153 M254.698 144.924 C 251.869 147.882,247.012 152.900,243.905 156.074 C 240.798 159.249,238.256 161.979,238.256 162.143 C 238.256 162.307,237.854 162.720,237.364 163.063 C 236.873 163.405,236.650 163.693,236.868 163.703 C 237.086 163.713,240.030 160.851,243.409 157.342 C 246.789 153.834,251.919 148.555,254.810 145.612 L 260.066 140.260 261.093 141.190 C 261.657 141.702,262.414 142.460,262.774 142.875 C 263.134 143.290,266.908 147.190,271.160 151.542 C 286.801 167.550,294.251 175.012,294.103 174.523 C 294.019 174.248,290.384 170.394,286.024 165.960 C 281.664 161.526,274.083 153.774,269.177 148.733 C 264.272 143.692,260.164 139.562,260.049 139.556 C 259.935 139.549,257.526 141.965,254.698 144.924 M343.971 162.009 C 343.526 162.454,343.656 219.149,344.103 219.425 C 344.366 219.588,344.500 209.915,344.500 190.707 C 344.500 174.778,344.440 161.744,344.367 161.744 C 344.295 161.744,344.116 161.863,343.971 162.009 M234.942 165.699 C 234.148 166.578,233.496 167.162,233.492 166.998 C 233.489 166.834,233.346 166.921,233.173 167.192 C 232.479 168.286,224.952 175.801,224.648 175.704 C 224.469 175.647,224.427 175.770,224.555 175.977 C 224.683 176.185,224.427 176.470,223.984 176.611 C 223.542 176.751,223.267 177.006,223.373 177.178 C 223.479 177.350,223.041 178.006,222.399 178.636 C 221.057 179.953,220.768 180.819,222.077 179.599 C 222.554 179.155,223.077 178.791,223.239 178.791 C 223.402 178.791,223.635 178.475,223.757 178.089 C 223.880 177.703,226.866 174.493,230.393 170.955 C 233.920 167.417,236.711 164.428,236.595 164.312 C 236.479 164.197,235.735 164.821,234.942 165.699 M294.549 174.978 C 294.549 175.097,295.084 175.743,295.738 176.412 C 296.392 177.081,296.928 177.488,296.928 177.317 C 296.928 177.145,296.392 176.499,295.738 175.882 C 295.084 175.264,294.549 174.858,294.549 174.978 M297.205 177.870 C 297.079 178.074,298.080 179.335,299.429 180.672 C 300.779 182.010,302.692 183.962,303.682 185.011 C 304.671 186.060,307.190 188.561,309.280 190.570 C 311.369 192.579,313.005 194.296,312.915 194.386 C 312.825 194.476,313.026 194.656,313.362 194.785 C 314.488 195.217,314.012 194.688,306.020 186.621 C 301.646 182.205,297.924 178.347,297.750 178.046 C 297.576 177.746,297.331 177.667,297.205 177.870 M221.209 181.483 C 221.209 181.642,221.559 181.990,221.987 182.258 C 222.629 182.658,222.728 182.646,222.551 182.185 C 222.321 181.586,221.209 181.004,221.209 181.483 M223.192 182.883 C 223.192 183.062,223.414 183.442,223.687 183.728 C 228.376 188.649,240.519 201.233,243.283 204.036 C 245.285 206.066,247.040 208.098,247.184 208.551 C 247.328 209.005,247.543 209.279,247.661 209.161 C 247.779 209.043,248.967 210.085,250.301 211.477 C 251.634 212.870,255.312 216.715,258.474 220.023 C 268.323 230.329,273.575 235.576,273.808 235.343 C 274.017 235.134,271.159 232.152,254.257 214.955 C 250.520 211.153,247.245 207.635,246.978 207.137 C 246.712 206.639,246.067 206.004,245.546 205.725 C 245.025 205.446,244.599 205.073,244.599 204.896 C 244.599 204.719,242.324 202.230,239.544 199.365 C 226.265 185.678,223.192 182.581,223.192 182.883 M315.046 196.420 C 315.438 196.958,315.923 197.404,316.125 197.411 C 316.326 197.418,316.072 196.977,315.560 196.432 C 314.371 195.167,314.130 195.161,315.046 196.420 M316.353 198.033 C 316.353 198.151,319.965 201.889,324.381 206.341 C 328.796 210.792,335.065 217.212,338.312 220.607 C 341.559 224.001,344.318 226.676,344.444 226.551 C 344.569 226.425,342.600 224.235,340.068 221.685 C 337.535 219.134,334.776 216.269,333.936 215.318 C 329.919 210.774,316.353 197.438,316.353 198.033 M275.124 237.186 C 275.124 237.334,277.800 240.176,281.070 243.501 C 284.341 246.826,287.017 249.365,287.017 249.143 C 287.017 248.921,286.520 248.298,285.912 247.759 C 285.304 247.220,284.543 246.422,284.222 245.986 C 283.387 244.855,275.124 236.861,275.124 237.186 M288.693 251.635 C 289.675 252.671,292.688 255.769,295.388 258.520 C 298.088 261.271,303.224 266.533,306.801 270.215 C 310.379 273.896,313.221 276.640,313.118 276.313 C 312.851 275.469,287.737 249.752,287.180 249.752 C 287.030 249.752,287.712 250.600,288.693 251.635 M316.273 280.243 C 317.298 281.315,320.813 284.996,324.083 288.423 C 333.038 297.808,340.270 305.051,340.062 304.428 C 339.799 303.639,315.206 278.295,314.703 278.295 C 314.541 278.295,315.247 279.172,316.273 280.243 M340.535 305.418 C 340.535 305.836,341.729 306.966,341.944 306.751 C 342.044 306.651,341.768 306.245,341.330 305.850 C 340.893 305.454,340.535 305.259,340.535 305.418 M342.848 307.830 C 343.080 308.266,345.419 310.745,348.047 313.339 C 350.675 315.933,352.825 318.110,352.825 318.177 C 352.825 318.244,353.271 318.745,353.816 319.290 C 355.856 321.331,354.713 319.567,352.407 317.118 C 351.087 315.716,349.508 314.034,348.897 313.380 C 346.429 310.734,342.453 307.087,342.848 307.830 M355.996 321.640 C 355.996 321.714,358.226 324.023,360.951 326.772 C 363.677 329.522,365.907 331.845,365.907 331.935 C 365.907 332.026,368.806 335.058,372.349 338.673 C 375.892 342.289,379.190 345.748,379.678 346.360 C 380.165 346.972,380.567 347.264,380.570 347.009 C 380.577 346.366,377.286 342.779,371.556 337.187 C 368.885 334.580,366.700 332.257,366.700 332.025 C 366.700 331.794,364.423 329.332,361.640 326.555 C 357.228 322.154,355.996 321.080,355.996 321.640 M382.383 349.202 C 382.806 349.608,385.267 352.116,387.852 354.775 C 390.438 357.435,392.655 359.509,392.779 359.385 C 393.052 359.112,382.540 348.464,381.997 348.464 C 381.787 348.464,381.960 348.796,382.383 349.202"/><path id="path4" fill="#1484d4" fill-rule="evenodd" stroke="none" d="M331.301 27.668 C 316.320 42.650,304.063 55.184,304.063 55.521 C 304.063 55.859,303.840 56.385,303.568 56.690 C 303.146 57.163,303.176 57.168,303.766 56.721 C 304.148 56.433,304.460 55.990,304.460 55.737 C 304.460 55.484,316.706 43.015,331.674 28.027 C 346.641 13.040,358.809 0.699,358.713 0.603 C 358.617 0.507,346.282 12.686,331.301 27.668 M0.793 1.305 C 0.793 1.692,3.993 4.861,4.187 4.666 C 4.274 4.580,3.545 3.725,2.568 2.767 C 1.592 1.808,0.793 1.151,0.793 1.305 M6.739 7.681 C 10.641 11.789,14.345 15.461,14.585 15.461 C 14.704 15.461,14.726 15.386,14.635 15.295 C 14.544 15.203,12.752 13.375,10.652 11.231 C 8.552 9.088,6.233 6.802,5.498 6.151 C 4.764 5.501,5.322 6.189,6.739 7.681 M15.796 17.047 C 16.450 17.701,17.122 18.236,17.288 18.236 C 17.455 18.236,17.079 17.701,16.452 17.047 C 15.825 16.392,15.154 15.857,14.960 15.857 C 14.766 15.857,15.142 16.392,15.796 17.047 M24.777 26.133 C 26.303 27.780,30.415 32.074,33.914 35.674 C 43.430 45.467,50.764 53.037,53.274 55.659 C 54.506 56.946,55.585 57.927,55.673 57.839 C 55.760 57.751,52.591 54.367,48.630 50.319 C 28.143 29.381,22.258 23.414,24.777 26.133 M127.116 340.040 C 127.015 340.203,128.297 340.289,129.967 340.229 C 135.293 340.041,135.904 339.878,131.540 339.809 C 129.209 339.772,127.218 339.876,127.116 340.040 M166.997 340.432 C 168.251 340.510,170.302 340.510,171.556 340.432 C 172.810 340.353,171.784 340.289,169.277 340.289 C 166.769 340.289,165.743 340.353,166.997 340.432 M157.894 340.829 C 159.155 340.907,161.118 340.907,162.254 340.827 C 163.391 340.747,162.359 340.683,159.960 340.683 C 157.562 340.684,156.632 340.750,157.894 340.829"/></g></svg>